<svg id="Layer_1" data-name="Layer 1" xmlns="http://www.w3.org/2000/svg" viewBox="0 0 787.2 312.5">
  <defs>
    <style>
      .cls-1{fill:none}.cls-2{fill:#fbf5f8}.cls-3{fill:#0546ec}
    </style>
  </defs>
  <path class="cls-1" d="M0 312.5V0h787.2v312.5Zm158-87.6c1 .3.8 1 1 1.6l1.6 7.8c6.7 26.7 32 42.7 53.5 39.3a40.8 40.8 0 0 0 22.5-10.2 38 38 0 0 0 9.3-14c.3-.8.3-1.8 1.3-2.2a4.8 4.8 0 0 1 .3 2.7V269c0 1.8 0 1.8 2 1.9h33.1c2 0 2-.1 2-2v-8l-.2-51.8a12.9 12.9 0 0 1 0-2.1c.3-1 1-1.3 1.9-1.2a1.3 1.3 0 0 1 1.3 1.2v2.4l-.2 59c0 2.5 0 2.6 2.5 2.6q16 0 31.9-.2h.4c1.7 0 1.7-.1 1.8-1.8v-63.6l-.1-4.8a34 34 0 0 0-4.9-16.4 37.8 37.8 0 0 0-30.7-18.4 37.2 37.2 0 0 0-40.8 36.6V220a4.6 4.6 0 0 1-.3 2.6 4 4 0 0 1-1.3-2 27 27 0 0 0-6.3-9 11.4 11.4 0 0 0-8.3-3.3h-23c-.8 0-1.8.3-2.5-.7a13.2 13.2 0 0 1 9-2.5 39.8 39.8 0 0 1 8.8 1.7 11.1 11.1 0 0 0 3.3.6c3.4 0 3.5 0 3.5-3.6v-32c0-2.4-.4-3.1-2.8-4a47.6 47.6 0 0 0-7.4-2 54 54 0 0 0-22-.6c-14 3-24.6 10.6-32.5 22.3a45 45 0 0 0-6.4 14.9c-.2.8 0 2-1.3 2.4a5.8 5.8 0 0 1-.3-2.9v-32.6c0-2.6 0-2.6-2.4-2.6h-36.6c-2.5 0-2.5 0-2.5 2.5v20a14 14 0 0 1-.1 2.1.5.5 0 0 1-.4.5.5.5 0 0 1-.6-.3 8.2 8.2 0 0 1-.5-1 40.2 40.2 0 0 0-12.5-16 38.3 38.3 0 0 0-30.8-8.4 36.6 36.6 0 0 0-19 9.3A39.3 39.3 0 0 0 38 204.8l-.1 5.5v59.5c0 1 .5 1.4 1.5 1.4h35c1.6 0 1.7 0 1.8-1.8v-4.8l.2-20.6c0-2.3 0-2.3 2.3-2.3 2.4.1 5 0 7.4-.2 11.4-.6 20-6 26-15.6a46.6 46.6 0 0 0 2.8-5.8c.1-.3.3-.6.7-.6s.5.4.5.7l.1 2.4V270c-.1 1.3.6 1.7 1.7 1.7h38.4c.9 0 1.4-.4 1.4-1.3v-42.7a5.4 5.4 0 0 1 .3-3Zm288-57.1h-36c-4.2 0-3.6-.7-3.7 3.8l.1 19.2a15.3 15.3 0 0 1-.1 2.1.5.5 0 0 1-.5.4.6.6 0 0 1-.5-.3 17 17 0 0 1-.7-1.8 33.8 33.8 0 0 0-3.5-7.9 34.9 34.9 0 0 0-21.1-17 44.9 44.9 0 0 0-24.6.4 34.2 34.2 0 0 0-24.2 23.9 47.8 47.8 0 0 0-1.9 14.4V269c0 1 .5 1.4 1.5 1.4H363c2.5 0 2.6-.1 2.7-2.5v-1l.2-18.7c0-2.3 0-2.3 2.3-2.3h.5c2 0 2.1 0 2.1 2.2v17.7a15.2 15.2 0 0 0 0 2c.2 2.1.6 2.4 2.8 2.6a17.3 17.3 0 0 0 2 0c9.4-.3 18.8 0 28.3 0h.7c1.6-.1 1.7-.2 1.7-1.9v-58.9c0-3.3-.2-3.2 3.4-3.2h13.6c3.2 0 3.2 0 3.2 3.2v60.7a1 1 0 0 0 .8 1.1.9.9 0 0 0 .4 0h1.4c10.5 0 21-.1 31.4-.3 4.2 0 3.8.8 3.8-3.8l.3-57.9c0-3 0-3 3-3h13.5c4.5 0 4-.4 4 4V269c0 .9.4 1.4 1.3 1.4H519c2.3 0 2.5-.2 2.6-2.4v-1l.2-18.7V247a1 1 0 0 1 1-1.2h1.5c2.5 0 2.5 0 2.5 2.4v17.8a14.4 14.4 0 0 0 .2 2.6c.2 1.2.8 1.6 2 1.7 2.2.1 4.5-.1 6.7-.1h24.5c2.1 0 2.2 0 2.2-2.1v-64.3a40 40 0 0 0-3.8-17.5 35.6 35.6 0 0 0-21.4-19.7 43.7 43.7 0 0 0-19.7-1.3 35.2 35.2 0 0 0-29.4 22.1c-.3.7-.3 2.1-1.4 1.8-1-.2-.5-1.5-.5-2.3l.1-15.6v-2.2a1.3 1.3 0 0 0-1.2-1.4 1 1 0 0 0-.3 0c-1 0-2.3-.2-3.4-.1-11.7.3-23.5.2-35.3.1Zm202.9 25.8a4.6 4.6 0 0 1-1.2-2.3 29.1 29.1 0 0 0-8-11.2 42.2 42.2 0 0 0-28.9-11.2h-40.5c-3.2 0-3.2 0-3.2 3.2v96.7c.1 1.7.2 1.8 2 1.8h30.7c3.9 0 3.9 0 3.9-4v-18c0-.8-.2-1.7.5-2.5a5.2 5.2 0 0 1 1.4 2.6l8 19.5a3.3 3.3 0 0 0 3.6 2.4H652c1.6 0 1.7-.2 1.1-1.7l-3.5-7.9-13.4-29.7c-1-2.4-1-2.4 1-4l3.8-3.6c.7-.7 1-2.3 2.2-1.8.8.3.5 1.7.6 2.6a56.8 56.8 0 0 0 23.7 39.8c9.1 6.8 19.6 9.6 30.9 9.5s21.6-2.8 30.6-9.7a56.2 56.2 0 0 0 23.8-45.7 49.6 49.6 0 0 0-5.2-23.7 53.5 53.5 0 0 0-18-20.1 54.2 54.2 0 0 0-48.7-7.3c-13 4-22.9 12.3-30.2 23.6a10.3 10.3 0 0 1-1.7 2.7Zm-534.4-92.4a8.6 8.6 0 0 1 .3 3.5v23.2c.1 1.7.2 1.8 1.8 1.8h27.1a1.6 1.6 0 0 0 1.8-1.5 2 2 0 0 0 0-.3v-16.3c0-1 .3-1.7 1.5-1.7s1.6.3 1.6 1.8v13.9c0 4-.9 4.2 4.2 4.2l23-.1c2.4 0 2.5 0 2.5-2.4V76.4a32.7 32.7 0 0 0-2-12.1A29.9 29.9 0 0 0 160 47a34.1 34.1 0 0 0-17.1-2.2 31.5 31.5 0 0 0-15.5 5.4 28.5 28.5 0 0 0-12.1 20.1 6 6 0 0 1-.8 3l-1.7-3.7c-4.1-8.5-10-15.4-18.2-20.2A42.9 42.9 0 0 0 48 53a42.7 42.7 0 0 0-17.8 33.8 43.2 43.2 0 0 0 47.4 44.8 41.8 41.8 0 0 0 27.1-13 42.5 42.5 0 0 0 9.9-17.3ZM226.7 70a19.4 19.4 0 0 1-.4-4c-.2-5-.2-10.1-.6-15.3a3.6 3.6 0 0 0-2.2-3.1 19.9 19.9 0 0 0-9.3-1.9c-9.5.2-18 3-24.3 10.6a28.8 28.8 0 0 0-6.7 20.7 31.4 31.4 0 0 0 2.7 11.8 32 32 0 0 0 3.3 5.9c.7 1 1.3 2 .5 3.3-.6.9-1.8 1-3.5.4-.8-.2-1.5-.6-2.2-1a2.8 2.8 0 0 0-3.9 1.2 3 3 0 0 0-.3 1.3 45.4 45.4 0 0 0-.3 8l.6 15a5.8 5.8 0 0 0 3.7 5.7 23 23 0 0 0 11.6 2 33 33 0 0 0 28.8-23.2 23 23 0 0 0-.7-16l-3-6.6a34.3 34.3 0 0 1-2-5c-.3-1-1-2.2 0-3s2 .1 2.8.6c1.6 1 3.1 1.7 5 .2v50.7a1.1 1.1 0 0 0 1 1.2h25a27.5 27.5 0 0 0 2.8 0c1.4 0 1.8-.5 1.9-2V124l-.2-12.5c0-1.5.3-1.7 1.6-1.8s1.7.2 1.7 1.9v13.7c0 4.4 0 4.5 4.3 4.3 7.5-.2 15 0 22.6 0h1.4a1.2 1.2 0 0 0 1.3-1 1 1 0 0 0 0-.4V76.6a32.7 32.7 0 0 0-1.9-12 29 29 0 0 0-21.4-19.4 36.9 36.9 0 0 0-21 1.5 27.7 27.7 0 0 0-17.6 18.7l-1.1 4.7Zm342.5 21a5.9 5.9 0 0 1 .4 3v26.3c0 .8.4 1.1 1.2 1.1h4c1.2 0 1.6-.4 1.6-1.5V69c0-1-.4-1.5-1.4-1.4s-2 0-3 0c-2.2 0-2.2 0-3 2.1l-6.8 23a6.8 6.8 0 0 1-1.1 2.6 5.7 5.7 0 0 1-1-2.4l-6.4-21c-1.4-4.7-1.4-4.6-6.2-4.3-1.1 0-1.7.4-1.6 1.5v48.2c0 4.2 0 4.2 4.2 4.2 2.7 0 2.6.3 2.6-2.6V93.8a4.3 4.3 0 0 1 .3-2.7 4.4 4.4 0 0 1 1 2.3l4.8 16.8c.3 1.1.8 1.9 2.1 1.8 1.7 0 1.9 0 2.3-1.7l4.8-16.6a4.5 4.5 0 0 1 1.2-2.6Zm-136 3.6v25c0 1.8 0 1.9 1.8 1.9h3.6c1 0 1.3-.4 1.3-1.3v-19.5c0-.7-.2-1.5.4-2 1.1-.8 3.6-.1 4 1.2l2.1 7.9 3.3 12c.2.8.3 1.6 1.4 1.6h5c.7 0 1-.4.8-1l-.5-2-5.8-19.5c-.4-1.4-.4-2.3.9-3.3a7.8 7.8 0 0 0 3-4 26.2 26.2 0 0 0-.2-17.4 9.4 9.4 0 0 0-7.8-6.4c-4-.6-8.1-.2-12.2-.2a1 1 0 0 0-1.2.7.9.9 0 0 0 0 .4v2Zm50.5 1.2V81.4a17.1 17.1 0 0 0-1.6-8 10.4 10.4 0 0 0-9.5-6.1c-4.5-.1-7.8 2.1-9.9 6a15.7 15.7 0 0 0-1.6 7.7v27.3a18.5 18.5 0 0 0 .8 5.7c2 6 8.2 9.4 13.8 7.4 4.8-1.7 7.3-5.4 7.8-10.3.5-5.4 0-10.9.1-15.2Zm6-1.2v25.4c0 1 .5 1.5 1.5 1.4 3.3 0 6.5.1 9.8-.1 5.2-.4 8.7-3.5 9.9-8.7a20.3 20.3 0 0 0 .5-3.5c.4-9.6.2-19.2.1-28.8a16.9 16.9 0 0 0-.7-4.7c-1.3-4.2-3.9-7-8.3-7.8-3.8-.6-7.7-.2-11.5-.2-1 0-1.3.5-1.2 1.3v25.7Zm50.1 1.2V81.4a16.9 16.9 0 0 0-1.6-8.2 10.4 10.4 0 0 0-9.4-6c-4.4 0-7.7 2-9.8 5.9a16 16 0 0 0-1.8 8.2V108a19.1 19.1 0 0 0 .8 5.9c2.3 7 10 10 16 6.4a11.5 11.5 0 0 0 5.6-9.3c.5-5.5 0-10.9.2-15.3Zm178.4-1.2V79a12.5 12.5 0 0 0-1.6-5.7 10.4 10.4 0 0 0-9.5-6c-4.2 0-7.4 2-9.6 5.8a16 16 0 0 0-1.8 8v27.1a18.8 18.8 0 0 0 .8 6 11 11 0 0 0 13.4 7.4 11.7 11.7 0 0 0 8.2-10.7c.4-5.3 0-10.7 0-16Zm20.8 11.6c-.1 1.4 0 2.9-.3 4.3a4 4 0 0 1-4.3 3.6c-2.8.1-4.3-1.3-4.9-4.2-.2-1.2.4-2.7-.6-3.4s-2.5-.2-3.8-.3H724a1.1 1.1 0 0 0-1.3 1 .8.8 0 0 0 0 .3c0 4 .7 7.7 3.4 10.7a10.8 10.8 0 0 0 11 3.4c4-.9 6.4-3.5 7.6-7.4a21.8 21.8 0 0 0 .7-3 45 45 0 0 0 .2-9.6c-.3-5-2.5-8.5-7.1-10.4-2-.8-3.8-1.7-5.7-2.6a4.4 4.4 0 0 1-2.5-2.7 13.2 13.2 0 0 1 .3-8.3 4 4 0 0 1 4.5-2.6c2 .3 3.3 1.8 3.7 4.5.3 1.1-.3 2.6.7 3.4s2.5.2 3.7.3h1.2c1 0 1.5-.5 1.5-1.5a25.4 25.4 0 0 0-.4-5 11.6 11.6 0 0 0-10.1-9.4c-5.3-.4-9.4 2.4-11.2 7.8a23 23 0 0 0-.4 13 10.4 10.4 0 0 0 5.4 7 28.6 28.6 0 0 0 4.3 2.1c4.4 1.5 6.3 4.4 5.6 9Zm-116.8 0-.4 4.3a4 4 0 0 1-4 3.6 4.2 4.2 0 0 1-4.9-3.1 10.4 10.4 0 0 1-.4-3.6c0-.8-.3-1.2-1.2-1.2H607c-.9 0-1.3.4-1.3 1.3a15.3 15.3 0 0 0 2.1 9 10.8 10.8 0 0 0 11.3 5.3c4.7-.7 7.5-3.5 8.7-8a33.2 33.2 0 0 0 .4-15 9.3 9.3 0 0 0-5-6.7c-1.7-1-3.5-1.7-5.2-2.5-4.7-2.2-5.3-3.2-5.1-8.3a7.6 7.6 0 0 1 .1-1.4c.4-3 2-4.9 4.3-5 2.6-.1 4 1.5 4.7 4.8.1 1-.4 2.4.6 3.1s2.3.2 3.5.3h1.2c1 0 1.6-.3 1.6-1.5a29.4 29.4 0 0 0-.3-4.8 11.6 11.6 0 0 0-10.2-9.6c-5.3-.4-9.5 2.5-11.3 8a23.2 23.2 0 0 0-.1 13.5 9.9 9.9 0 0 0 4.8 6.1 25.9 25.9 0 0 0 4.5 2.2c4.4 1.6 6.6 4.4 5.9 9.2ZM360.3 94.7v25c0 1.8 0 1.8 1.9 1.8h16.5c1.2 0 1.8-.3 1.7-1.6s0-2.9 0-4.3c0-1.8 0-1.8-2-1.8H369c-1.7 0-1.8 0-1.8-1.8v-12c0-2 0-2 2-2h8c1.1 0 1.7-.4 1.6-1.7v-3.8c0-1.7 0-1.8-1.8-1.8H369c-1.9 0-2 0-2-1.9V77.4c0-2.4 0-2.4 2.5-2.4h9.3c1.1 0 1.7-.4 1.6-1.6V70c0-2.2 0-2.2-2.1-2.2h-15.6c-2.4 0-2.4 0-2.4 2.4v24.6Zm-49 0v24.5c0 2.3 0 2.3 2.4 2.3H330c1 0 1.5-.4 1.4-1.4V116c0-2.3 0-2.3-2.2-2.3h-9.6c-.8 0-1.5 0-1.5-1V99a1 1 0 0 1 1-1h9c1.2 0 1.7-.5 1.6-1.7v-3.8c0-1.7 0-1.8-1.8-1.8H320c-1.8 0-1.9 0-2-1.9V77.3c0-2.3 0-2.3 2.5-2.3h9.3c1.2 0 1.7-.5 1.6-1.6v-3.6c0-2.1 0-2.1-2.1-2.1h-15.6c-2.4 0-2.4 0-2.4 2.4v24.6Zm72.9 0V108a20.7 20.7 0 0 0 .8 6.6 10.3 10.3 0 0 0 17.6 3.7 15 15 0 0 0 3.4-11.2c0-.8-.5-1-1.2-1h-4.1c-1 0-1.5.3-1.5 1.3a10.6 10.6 0 0 1-.5 4 4 4 0 0 1-3.9 2.6 3.6 3.6 0 0 1-3.4-2.8 12.2 12.2 0 0 1-.5-3.5v-26a15.2 15.2 0 0 1 .7-4.5 3.2 3.2 0 0 1 3-2.3 3.5 3.5 0 0 1 3.5 1.6 5.8 5.8 0 0 1 1 2.6l.2 2.7c0 .9.3 1.1 1.1 1.1h4.4c.9 0 1.2-.4 1.2-1.3a18 18 0 0 0-1.5-8.4c-2-3.8-4.9-6.1-9.3-6a10.2 10.2 0 0 0-9.6 6 15.7 15.7 0 0 0-1.4 7.1v14.3Zm198.1-.4v25.2c0 2 0 2 1.5 2h17.3c1 0 1.4-.5 1.4-1.5v-4.5c0-1.6-.1-1.8-1.9-1.8h-9.3c-2.2 0-2.2 0-2.2-2V100c0-2.1 0-2.1 2.1-2.2h7.2c2.4 0 2.3 0 2.3-2.2v-2.4c0-2.6 0-2.6-2.5-2.6H591c-1.8 0-1.8-.1-1.9-2V76.3c0-1 .4-1.4 1.3-1.4h10.3c1.7 0 1.7-.1 1.8-1.8v-3.6c0-1.8 0-1.9-2-1.9h-16.8c-1 0-1.4.5-1.4 1.5v1.7Zm86.4.2v13.7a19 19 0 0 0 .9 6.6 10.3 10.3 0 0 0 18 3 14.2 14.2 0 0 0 2.9-9c0-2.7 0-2.7-2.8-2.7h-2c-2 0-2 0-2 2a10.9 10.9 0 0 1-.4 3.3 4 4 0 0 1-3.9 2.7 3.6 3.6 0 0 1-3.6-2.9 12 12 0 0 1-.4-3.3V81.7a14 14 0 0 1 .6-4.5A3.1 3.1 0 0 1 679 75a3.5 3.5 0 0 1 3.6 1.4 7.7 7.7 0 0 1 1.1 3.1c.2 1.1-.4 2.5.5 3.3s2.4.2 3.5.3h1.5c1 0 1.4-.5 1.4-1.5a18.3 18.3 0 0 0-1.6-8.4c-1.9-3.8-5-6-9.3-6a10.2 10.2 0 0 0-9.5 6.1 15.3 15.3 0 0 0-1.4 7v14.2ZM416 98.3v22c0 .9.4 1.2 1.2 1.2h4c1.2 0 1.7-.4 1.6-1.5V76.8c0-1.8 0-1.8 2-1.8h4c1.2 0 1.8-.4 1.8-1.7v-3.6c0-2 0-2-2-2h-18.7c-1 0-1.7.4-1.6 1.5v4.1c0 1.4.4 1.8 1.6 1.7h4.8c1 0 1.4.4 1.4 1.3V78Zm222 0v21.1c0 2 0 2 2.2 2.1h3c1.3 0 1.7-.5 1.6-1.6V77.5c0-2.5 0-2.5 2.7-2.6h3.6c1 0 1.5-.3 1.4-1.4V70c0-2.3 0-2.3-2.2-2.3h-18.5c-1 0-1.6.4-1.6 1.5v4.3c0 1 .4 1.5 1.4 1.5h4.1c2.2 0 2.2 0 2.3 2.3v21Zm-302.4-3.8v25.7c0 .9.3 1.3 1.2 1.3h17.5c1.1 0 1.4-.5 1.4-1.5v-3.8c0-2.4 0-2.4-2.4-2.4h-8.9c-2 0-2 0-2-2.1V72.6c0-5.5 0-5.5-5.5-5h-.4a1 1 0 0 0-1 1v2Zm320.2-.2v25.3c0 1.8 0 1.9 1.9 1.9h3.3c1.2 0 1.6-.5 1.5-1.6V72c0-5.1.9-4.4-4.4-4.4-2.3 0-2.3 0-2.3 2.4v24.3ZM587.9 65c2.9.7 4.7.1 6.2-2s3.5-4.4 5.2-6.6c.4-.5 1-.8.9-1.8h-5.7c-.7 0-1.1.5-1.4 1l-2.5 4.4-2.7 5Z"/>
  <path class="cls-2" d="M158 224.9a5.5 5.5 0 0 0-.3 2.9v42.7c0 1-.5 1.3-1.4 1.3H118c-1.2 0-1.8-.4-1.7-1.7v-47.5a23.8 23.8 0 0 0-.1-2.4c0-.3 0-.6-.5-.7s-.6.3-.7.6a46.6 46.6 0 0 1-2.8 5.8 31 31 0 0 1-26 15.6l-7.5.3c-2.2-.1-2.2 0-2.2 2.2l-.1 20.7c0 1.6 0 3.2-.2 4.8s0 1.7-1.8 1.7h-35c-1 0-1.5-.4-1.4-1.4v-65c.3-12 5.6-21.5 14.3-29.3a36.6 36.6 0 0 1 19.1-9.4 38.4 38.4 0 0 1 30.8 8.5 40.2 40.2 0 0 1 12.4 15.8 8.2 8.2 0 0 0 .6 1.1.5.5 0 0 0 .6.3.5.5 0 0 0 .4-.5v-22.1c0-2.5 0-2.5 2.6-2.5h36.5c2.5 0 2.5 0 2.5 2.6v32.6a5.8 5.8 0 0 0 .3 2.9c1.3-.4 1-1.6 1.2-2.4a45 45 0 0 1 6.4-15 50.7 50.7 0 0 1 32.6-22.2 54 54 0 0 1 21.9.7 47.6 47.6 0 0 1 7.4 1.9c2.4.9 2.9 1.6 2.9 4v32c0 3.5-.2 3.6-3.6 3.6a11.1 11.1 0 0 1-3.3-.6 39.8 39.8 0 0 0-8.7-1.7 13.2 13.2 0 0 0-9.1 2.5c.8 1 1.7.7 2.5.7h23a11.4 11.4 0 0 1 8.4 3.4 27 27 0 0 1 6.3 9 4 4 0 0 0 1.2 2 4.6 4.6 0 0 0 .4-2.7v-17.5a37.3 37.3 0 0 1 40.8-36.5c13.2 1 23.6 7 30.7 18.4a34 34 0 0 1 4.9 16.3v68.4c0 1.7 0 1.8-1.7 1.9h-.4l-32 .1c-2.4 0-2.4 0-2.4-2.6l.2-59v-2.2a1.3 1.3 0 0 0-1.1-1.4h-.2c-.9 0-1.7.2-1.8 1.2a12.9 12.9 0 0 0-.1 2.2l.2 51.8v7.9c0 2 0 2-2 2-1.6.2-3 .1-4.6 0h-28.6c-1.9 0-1.9 0-2-1.9v-19.2a4.8 4.8 0 0 0-.2-2.7c-1 .4-1 1.4-1.3 2.2a38 38 0 0 1-9.4 14 40.8 40.8 0 0 1-22.5 10.3c-21.5 3.2-46.8-12.8-53.4-39.4l-1.6-7.8c-.2-.5 0-1.3-1-1.6Zm160.7 8V206a32.3 32.3 0 0 0-29.9-33.6c-11-1-20.3 2.6-27.5 11.1a33.5 33.5 0 0 0-8 22.6v57c0 1.8 0 1.8 1.7 1.8h23c1.9 0 1.9 0 2-1.8v-54.7a19.6 19.6 0 0 1 .2-3.6 5.7 5.7 0 0 1 11.2-.1 15.4 15.4 0 0 1 .3 3.6v54.9c0 1.7 0 1.7 1.7 1.7H317c1.2 0 1.8-.3 1.7-1.6a15.7 15.7 0 0 1 0-1.7ZM225 201.3a1 1 0 0 0 .4-1v-24a1.7 1.7 0 0 0-1.4-1.8 44.3 44.3 0 0 0-45.3 10.8 43.6 43.6 0 0 0-13.9 30.4 53.2 53.2 0 0 0 12.3 36.5 38 38 0 0 0 25.6 14.6c8.4 1 16.4.1 23.9-4.1a30.3 30.3 0 0 0 15.5-31.3 38 38 0 0 0-7.2-16.3 2.3 2.3 0 0 0-2.3-.9h-21.9c-2 0-2 0-2 2v16.6c0 2 0 2 2 2a31.5 31.5 0 0 1 6.2.4 2.7 2.7 0 0 1 2.3 2.3 3 3 0 0 1-1.6 3.2 8 8 0 0 1-4.1 1 18 18 0 0 1-17-9.5c-5.7-10.1-4.2-21.5 5.3-29a19.2 19.2 0 0 1 18.3-3.4c1.7.5 3.2 1.4 4.9 1.5ZM43.9 232v31.4c0 1 .3 1.5 1.4 1.4H69c1.8 0 1.8 0 1.9-1.8v-56.7a11.9 11.9 0 0 1 1.2-5.8c1.4-2.6 3.5-3.6 6.1-3.1a6.4 6.4 0 0 1 5 5.7 5.3 5.3 0 0 1-3.7 6 8.4 8.4 0 0 1-2.8.6c-1 0-1.4.5-1.4 1.5v20.9c0 1.1.5 1.5 1.6 1.5a60 60 0 0 0 14.1-.9 23 23 0 0 0 10.7-5.3c9.3-8.1 12-18.5 9.5-30.4-1.6-7.2-6-12.8-11.8-17.2a34 34 0 0 0-49.1 6.5 28 28 0 0 0-6 14.2c-.3 2.6-.3 5.1-.4 7.7V232Zm107.4-12.3v-43.2c0-2.3 0-2.3-2.2-2.3h-23c-2 0-2 0-2 2.2V262c0 3-.3 2.8 2.6 2.8h22c2.7 0 2.6.2 2.6-2.6Zm51.3-9c-3.6 3.8-3.4 12 0 15.9ZM446 167.8c11.9.1 23.7.2 35.6-.1l3.3.1c1.1 0 1.5.6 1.5 1.5V187c0 .9-.4 2.1.5 2.4 1.1.3 1-1.1 1.4-1.8a35.2 35.2 0 0 1 29.3-22.1 43.7 43.7 0 0 1 19.7 1.2 35.6 35.6 0 0 1 21.5 19.8 40 40 0 0 1 3.7 17.4v64.3c0 2.1 0 2.2-2.2 2.2H536c-2.3 0-4.5.2-6.7 0-1.2 0-1.8-.5-2-1.6a14.4 14.4 0 0 1-.2-2.6v-17.8c0-2.5 0-2.5-2.5-2.5h-1.2a1 1 0 0 0-1.2 1 .9.9 0 0 0 0 .3v1.2l-.2 18.7v1c-.1 2.2-.3 2.4-2.6 2.4h-32.6c-1 0-1.3-.5-1.3-1.4v-58.8c0-4.3.4-4-4-4h-13.5c-3 0-3 0-3 3l-.3 57.9c0 4.6.4 3.8-3.8 3.9l-31.4.3h-1.5a1 1 0 0 1-1.2-.8 1.3 1.3 0 0 1 0-.4v-60.7c0-3.2 0-3.2-3-3.2h-13.8c-3.5 0-3.3 0-3.3 3.2v59c0 1.7-.2 1.8-1.8 1.9h-.7c-9.5 0-18.9-.2-28.3.1a17.3 17.3 0 0 1-2 0c-2.2-.2-2.5-.5-2.8-2.7a15.2 15.2 0 0 1 0-2v-17.6c0-2.2 0-2.2-2-2.2h-.5c-2.3 0-2.4 0-2.4 2.3L366 267v1c0 2.4-.2 2.5-2.6 2.5h-32.4c-1 0-1.5-.4-1.5-1.4v-64a47.8 47.8 0 0 1 1.8-14.5 34.2 34.2 0 0 1 24.2-23.9 44.9 44.9 0 0 1 24.6-.3 34.7 34.7 0 0 1 21.2 17 33.8 33.8 0 0 1 3.4 7.8 17 17 0 0 0 .7 1.8.6.6 0 0 0 .6.4.5.5 0 0 0 .4-.5 15.3 15.3 0 0 0 .2-2.1c0-6.4-.2-12.8-.1-19.2 0-4.5-.5-3.7 3.6-3.8h36Zm111 65.5v-25.7a37.7 37.7 0 0 0-3.1-16.1 30.8 30.8 0 0 0-18.4-17.6 36.3 36.3 0 0 0-17.5-1 29.8 29.8 0 0 0-24 18.3 39.6 39.6 0 0 0-3 16.2v56.2c0 1 .5 1.4 1.5 1.4h24c1.8 0 1.8 0 1.9-1.9v-17.8c0-1.9 0-1.9 2-2h3.3c1.9 0 2 0 2-1.8V221c0-1.1-.4-1.6-1.6-1.6h-4c-1.2 0-1.8-.2-1.8-1.6v-11.7a7.8 7.8 0 0 1 1.8-5 5 5 0 0 1 6.9-1 5.1 5.1 0 0 1 1.4 1.9 11.2 11.2 0 0 1 1.2 5.5v55.7c0 1.2.3 1.6 1.6 1.6h24.5a1 1 0 0 0 1.2-.8 1 1 0 0 0 0-.3v-2Zm-222-.3v30.2c0 1.3.5 1.8 1.7 1.7s2.4 0 3.6 0h20.2c1.9 0 1.9 0 1.9-1.8v-18c0-1.7 0-1.7 1.8-1.8h3c2.5 0 2.5 0 2.5-2.3v-19.4c0-2 0-2-2-2h-3.8c-1.3 0-1.6-.5-1.6-1.6l.1-12a7.6 7.6 0 0 1 1.7-4.7 5 5 0 0 1 6.9-1 5 5 0 0 1 1.5 1.7 11.4 11.4 0 0 1 1.1 5.8v54.7c0 2.4 0 2.4 2.4 2.4h22.8c2 0 2.1 0 2.1-2v-56.2a36 36 0 0 0-3-15.2 30.8 30.8 0 0 0-18.1-17.5 36.3 36.3 0 0 0-18-1.1 29.9 29.9 0 0 0-22.6 15.7 37.7 37.7 0 0 0-4.1 18.3V233Zm111-58.7h-31.9c-2.2 0-2.2 0-2.2 2V198c0 2 0 2 2 2h15.4c3.6 0 3.2-.5 3.3 3.1v59.3c0 2.3 0 2.3 2.3 2.4h22c2.6 0 2.6 0 2.6-2.7V204c0-3.9 0-3.9 4-3.9h14.7c1.7 0 1.7 0 1.8-1.7v-23a1 1 0 0 0-1-1h-33Zm80.5 35.4h-.2v-5.2c0-2-.9-3-2.2-3s-1.9.8-2 2.8V215c0 .9.3 1.4 1.2 1.4h1.7c1.3 0 1.7-.5 1.6-1.8v-4.7Zm-156-.1h-.3v-5.3a2.9 2.9 0 0 0-.7-2 1.7 1.7 0 0 0-2.3-.6 1.7 1.7 0 0 0-.8 1.1 8.5 8.5 0 0 0-.4 2.9v8.3c0 2.2 0 2.2 2.2 2.2h1c1 0 1.4-.4 1.4-1.4v-5.2ZM649 193.6a10 10 0 0 0 1.8-2.6 54.5 54.5 0 0 1 30.1-23.7c17.3-5.3 33.7-3 48.8 7.3a53.5 53.5 0 0 1 18 20.2 49.6 49.6 0 0 1 5.2 23.6 56.2 56.2 0 0 1-23.8 45.8c-9 6.8-19.4 9.6-30.6 9.7s-21.8-2.7-30.9-9.5a56.9 56.9 0 0 1-23.7-39.9c-.1-.9.3-2.3-.6-2.6-1.2-.4-1.5 1.1-2.2 1.8-1.3 1.2-2.5 2.5-3.9 3.6-2 1.6-2 1.6-.9 4l13.4 29.8 3.5 7.8c.6 1.5.5 1.7-1 1.8h-34.8a3.3 3.3 0 0 1-3.6-2.5l-8-19.5a5.2 5.2 0 0 0-1.5-2.5c-.7.8-.4 1.7-.4 2.5l-.1 18c0 4 0 4-3.8 4h-30.8c-1.8 0-1.9-.1-2-1.9v-96.7c0-3.1 0-3.1 3.2-3.1h40.5a42.2 42.2 0 0 1 28.9 11 29.1 29.1 0 0 1 8 11.4 4.5 4.5 0 0 0 1.1 2.2Zm1.7 26a49.8 49.8 0 0 0 .8 8 48 48 0 0 0 46 39.6c8.4 0 16.5-1.5 23.7-6a48.8 48.8 0 0 0 24-36 45 45 0 0 0-26-48 46.2 46.2 0 0 0-50 4.8c-12.1 9-18.5 21-18.5 37.6Zm-5.2 45.3a5 5 0 0 0-.7-2.7l-13.6-32.3c-.9-2.2-.9-2.2.8-3.6a28.4 28.4 0 0 0 9.2-15.1c2.4-10 .7-19-6.6-26.4a33.5 33.5 0 0 0-24.7-10.5h-33.1c-3.5 0-3.1-.3-3.1 3v86.2c0 1 .3 1.4 1.4 1.4h24c1.1 0 1.5-.4 1.5-1.5V200c0-1 .4-1.3 1.3-1.3 2 .1 4.2 0 6.2.2a11 11 0 0 1 4.4 1.3c2.3 1.2 3 3.2 2.8 5.6s-1 4.5-3.5 5.5a17 17 0 0 1-5.3 1.2c-1.6 0-2 0-2 2.1v19.5a7 7 0 0 0 .6 3c3.9 8.6 7.8 17.2 11.5 25.9a2.8 2.8 0 0 0 3 2h22.6Zm-41.3-59.3c.3 1-.9 2.8.7 3.5 1.2.5 2.7.1 4-.2a2.9 2.9 0 0 0 2.3-2.4c.5-2.7-1-4.5-4.2-4.9-2.6-.3-2.8-.1-2.8 2.4v1.6ZM114.5 101.2a42.4 42.4 0 0 1-10 17.3 42 42 0 0 1-27 13c-9.6 1-18.8-.9-26.9-6.3A43.3 43.3 0 0 1 30 86.6c.3-14.2 7-25.1 17.9-33.8a42.8 42.8 0 0 1 46.7-3.3c8.3 4.7 14.1 11.7 18.2 20.2l1.8 3.7a5.8 5.8 0 0 0 .7-3 28.5 28.5 0 0 1 12.1-20.2 31.5 31.5 0 0 1 15.5-5.4A34.2 34.2 0 0 1 160 47c7.8 3.4 13 9.4 16 17.2a32.8 32.8 0 0 1 2.2 12.2v51c0 2.3 0 2.3-2.4 2.3l-23 .1c-5.1 0-4.2-.2-4.2-4.2v-13.9c0-1.5-.3-1.7-1.6-1.7s-1.5.6-1.5 1.7V128a1.6 1.6 0 0 1-1.5 1.8 1 1 0 0 1-.3 0H116.7c-1.7 0-1.8-.2-1.8-1.8v-23.3a8.6 8.6 0 0 0-.4-3.5ZM99 82.5l9.9-.6c1.9-.1 2-.2 1.4-2.2a40.3 40.3 0 0 0-4.3-10.6 36.2 36.2 0 0 0-39.1-18 35.6 35.6 0 0 0-18.8 10c-8.7 8.4-12.7 18.5-11.5 30.5s7.2 21.4 17.3 28a36.2 36.2 0 0 0 33.4 3 34.2 34.2 0 0 0 17.2-13.5 44.2 44.2 0 0 0 6.2-17.7c.4-2.2.1-2.1-1.7-2.3-6.2-.3-12.5-.2-18.7-.4-1 0-1.7.3-1.8 1.4a7.5 7.5 0 0 1-.3 1.4c-2 6.5-6.7 11.6-15.2 11.4C64 102.6 54.5 92 61 80.7a14.6 14.6 0 0 1 24.7-1.9 17.8 17.8 0 0 1 1.8 2.8 2.3 2.3 0 0 0 2.6 1.5c3-.3 6-.4 9.1-.6Zm22 15.8V121c0 2.2 0 2.2 2.2 2.2h16.8c2.7 0 2.5.3 2.6-2.6v-12.5c0-1.7 0-1.7 1.7-1.8h2.6c1 0 1.4-.4 1.4-1.4V89c0-1-.3-1.4-1.2-1.4h-3c-1.1 0-1.6-.4-1.6-1.7V78a8.7 8.7 0 0 1 1-4.1 3.6 3.6 0 0 1 3.4-2c2.1 0 3.6 1.2 4.1 3.6a17.9 17.9 0 0 1 .3 3.6v42c0 2.2 0 2.2 2.2 2.2h17c2.3 0 2.3 0 2.4-2.3V78.7a33.3 33.3 0 0 0-.8-8c-2-8-6.2-14.3-13.7-18a27 27 0 0 0-17.8-1.6 23.2 23.2 0 0 0-15 10 28 28 0 0 0-4.6 16v21.2Zm-47.8.2a10.3 10.3 0 0 0 10.6-9.9v-.1a10.5 10.5 0 0 0-10.2-10.3 10 10 0 0 0-10.4 9.6v.4a10.2 10.2 0 0 0 10 10.3Zm75.1-18.7V76c0-.8-.2-1.7-1.2-1.6s-1.2.7-1.2 1.5v7.6c0 1 .6 1 1.4 1s1-.4 1-1.1v-3.6ZM226.7 70l1.1-4.4c2.9-9 8.7-15.4 17.6-18.7a36.9 36.9 0 0 1 21-1.5 29 29 0 0 1 21.4 19.4 32.7 32.7 0 0 1 2 12v51.6a1.2 1.2 0 0 1-1 1.3 1 1 0 0 1-.4 0H287c-7.5 0-15-.1-22.6.1-4.3.2-4.3 0-4.3-4.3v-13.7c0-1.7-.3-1.9-1.7-1.9s-1.5.3-1.5 1.8v16.1c0 1.4-.4 1.9-1.8 2h-27.6a1 1 0 0 1-1.1-1 .7.7 0 0 1 0-.2V77.8c-2 1.6-3.5.9-5 0-1-.6-2-1.4-3-.7s-.2 2 0 3a34.3 34.3 0 0 0 2.2 5l3 6.6a23 23 0 0 1 .7 16 33 33 0 0 1-28.9 23.3 23 23 0 0 1-11.6-2.2 5.8 5.8 0 0 1-3.7-5.6l-.6-15.1a45.4 45.4 0 0 1 .3-7.9 2.8 2.8 0 0 1 2.9-2.8 2.7 2.7 0 0 1 1.3.3l2.2 1c1.7.6 2.9.5 3.5-.5.8-1.2.3-2.3-.5-3.3a32 32 0 0 1-3.3-5.8 31.4 31.4 0 0 1-2.7-12 28.8 28.8 0 0 1 6.8-20.7 30.4 30.4 0 0 1 24.2-10.6 19.9 19.9 0 0 1 9.4 1.9 3.6 3.6 0 0 1 2.1 3.1c.5 5.1.4 10.3.7 15.4a19.4 19.4 0 0 0 .3 3.9Zm5.9 28.1v23.5c0 1.2.3 1.7 1.6 1.7h18.5c1 0 1.4-.3 1.4-1.3v-13.7c0-1.8 0-1.8 2-1.9h2.6c.9 0 1.3-.4 1.3-1.3v-16c0-1-.5-1.5-1.5-1.5h-2.9c-1.1.1-1.5-.4-1.5-1.5v-8.2a8.5 8.5 0 0 1 1-3.9 3.8 3.8 0 0 1 3.5-2A3.6 3.6 0 0 1 262 74a10 10 0 0 1 .8 4.7V121c0 2.4 0 2.4 2.4 2.4h17c2.2 0 2.2 0 2.2-2.3v-43a29.8 29.8 0 0 0-1.7-10.5 24.6 24.6 0 0 0-15.3-15.8A27.8 27.8 0 0 0 253 51c-9.2 1.8-15.5 7.1-18.8 16a30 30 0 0 0-1.7 10.6V98Zm-48.4 4.5a3 3 0 0 0-.2.6v18.4c0 1.2.5 1.5 1.4 1.9 7.6 3 15 2 21.9-2a23.4 23.4 0 0 0 10.3-30l-3.1-6.7c-.8-1.5-1.6-3-2.2-4.5a6 6 0 0 1 .8-6.6 5.7 5.7 0 0 1 6.2-1.9c1.7.4 1.8.3 1.8-1.5V53.8a2 2 0 0 0-1.7-2.4 25.6 25.6 0 0 0-9.8-.8 24.7 24.7 0 0 0-20.8 30 48.8 48.8 0 0 0 4.4 11.1 27.5 27.5 0 0 1 2.3 5.3 4.5 4.5 0 0 1-1.2 4.8 7 7 0 0 1-6.6 2c-1.1-.3-2.2-1-3.5-1.3ZM260 79.7v-3.8c0-1-.4-1.6-1.4-1.6s-1.1.8-1.1 1.5v7.5c0 .9.3 1.2 1.2 1.3s1.3-.4 1.3-1.3v-3.6ZM569.2 91.1a4.6 4.6 0 0 0-1.1 2.5l-4.8 16.6c-.5 1.7-.6 1.7-2.3 1.8-1.4 0-1.8-.7-2.1-1.8L554 93.3a4.4 4.4 0 0 0-1-2.2 4.3 4.3 0 0 0-.4 2.6V119c0 3 .1 2.6-2.6 2.6-4.2 0-4.2 0-4.2-4V69.1c0-1.1.5-1.5 1.6-1.6 4.9-.3 4.9-.3 6.3 4.3l6.4 21.1a5.7 5.7 0 0 0 1 2.3 6.8 6.8 0 0 0 1-2.5l7-23c.6-2.2.6-2.2 3-2.2h2.8a1.2 1.2 0 0 1 1.4 1 1.2 1.2 0 0 1 0 .5V120c.1 1.1-.4 1.6-1.5 1.6h-4c-.9 0-1.3-.3-1.3-1.2V94a5.8 5.8 0 0 0-.4-2.9ZM433.1 94.7V68.8a1 1 0 0 1 .8-1.1.9.9 0 0 1 .4 0c4 0 8.2-.4 12.2.2a9.4 9.4 0 0 1 7.8 6.4 26.2 26.2 0 0 1 .1 17.4 7.8 7.8 0 0 1-2.9 4c-1.3 1-1.3 2-.9 3.3l5.8 19.6.5 1.8c.1.6 0 1-.8 1h-5c-1 0-1.2-.8-1.4-1.5l-3.3-12-2.1-7.9c-.4-1.3-2.9-2-4-1.2-.6.5-.4 1.3-.4 2v19.4c0 1-.3 1.4-1.2 1.3H435c-1.8 0-1.9 0-1.9-1.8V110Zm6.8-11.5v4.6c0 4.3-1 4 4.1 3.9 3-.1 4.3-1.4 4.8-4.4a26.2 26.2 0 0 0 .2-5.7c-.3-5.5-2.1-7-7.6-6.7-1.1 0-1.6.5-1.6 1.6v6.7ZM483.6 95.9c0 4.3.4 9.8-.2 15.2-.5 5-3 8.6-7.7 10.3-5.7 2-12-1.4-13.9-7.4a18.5 18.5 0 0 1-.8-5.7V81a15.8 15.8 0 0 1 1.7-7.7c2.1-3.9 5.4-6.1 9.8-6a10.4 10.4 0 0 1 9.6 6.2 17.1 17.1 0 0 1 1.5 8v14.4Zm-6.7-1.4V82.1a23 23 0 0 0-.2-3.1 4.3 4.3 0 0 0-4.4-4c-2.2 0-3.9 1.5-4.3 4a16.4 16.4 0 0 0-.2 2.6v25.9a16.2 16.2 0 0 0 .3 3.3 4.3 4.3 0 0 0 8.5 0 19.4 19.4 0 0 0 .3-3.6V94.5ZM489.7 94.7V69c0-.9.4-1.4 1.3-1.4 3.8.1 7.7-.3 11.5.3 4.4.7 7 3.6 8.3 7.7a16.9 16.9 0 0 1 .7 4.8c0 9.6.2 19.2-.1 28.8a20.3 20.3 0 0 1-.5 3.5c-1.3 5.1-4.7 8.3-10 8.7-3.2.2-6.5 0-9.8.1-1 0-1.4-.4-1.4-1.4V94.7Zm6.8 0V111c0 3.6 0 3.7 3.8 3.3 2.4-.3 3.6-1.4 4.2-3.7a16.8 16.8 0 0 0 .3-3.3V82.4a13 13 0 0 0-.7-4.7 3.8 3.8 0 0 0-3.2-2.6 15.4 15.4 0 0 0-2.1-.1c-2.3 0-2.3 0-2.3 2.2v17.5ZM539.8 95.9c-.1 4.3.3 9.8-.2 15.2a11.5 11.5 0 0 1-5.6 9.3c-6 3.7-13.7.6-16-6.4a19.4 19.4 0 0 1-.8-6V81.3a16 16 0 0 1 1.8-8c2.1-3.9 5.4-6 9.7-6a10.4 10.4 0 0 1 9.5 6 16.9 16.9 0 0 1 1.6 8.2V96Zm-6.7-1.4v-12a26.8 26.8 0 0 0-.2-3.5 4.2 4.2 0 0 0-4.4-4c-2.3 0-3.9 1.5-4.3 4a16.3 16.3 0 0 0-.2 2.6v25.8a16 16 0 0 0 .3 3.1 4.3 4.3 0 0 0 8.5 0 20.7 20.7 0 0 0 .3-3.3V94.5ZM718.1 94.7c0 5.4.4 10.7 0 16.1a11.7 11.7 0 0 1-8.1 10.7 11 11 0 0 1-13.5-7.5 18.8 18.8 0 0 1-.8-6V81a16 16 0 0 1 1.8-8c2.1-3.6 5.3-5.7 9.6-5.6a10.4 10.4 0 0 1 9.5 6A12.5 12.5 0 0 1 718 79v15.7Zm-6.6-.2V82a17.7 17.7 0 0 0-.3-3.4 4.3 4.3 0 0 0-8.5 0 12 12 0 0 0-.3 2.6V108a12.4 12.4 0 0 0 .4 2.9 4.3 4.3 0 0 0 8.4 0 16.2 16.2 0 0 0 .3-3.4v-13ZM739 106.3c.7-4.6-1.3-7.5-5.6-9a28.6 28.6 0 0 1-4.3-2.1 10.4 10.4 0 0 1-5.4-7 23 23 0 0 1 .3-13c1.9-5.4 6-8.3 11.3-7.9a11.6 11.6 0 0 1 10.1 9.4 25.4 25.4 0 0 1 .3 5c0 1-.3 1.6-1.4 1.5h-1.2c-1.2 0-2.7.5-3.7-.3s-.4-2.2-.7-3.4c-.4-2.7-1.6-4.1-3.7-4.4a4 4 0 0 0-4.5 2.6 13.2 13.2 0 0 0-.3 8.2 4.3 4.3 0 0 0 2.5 2.8c1.9.9 3.7 1.8 5.7 2.6 4.6 2 6.8 5.5 7.1 10.4a45 45 0 0 1-.2 9.6 21.8 21.8 0 0 1-.7 3c-1.2 3.9-3.7 6.5-7.7 7.4a10.8 10.8 0 0 1-10.9-3.4c-2.7-3-3.5-6.7-3.4-10.7a1.1 1.1 0 0 1 1-1.3h1.6c1.3 0 2.7-.4 3.8.2s.4 2.3.6 3.4c.6 3 2 4.4 4.8 4.3a4 4 0 0 0 4.4-3.6l.2-4.3ZM622.2 106.3c.7-4.8-1.5-7.6-5.9-9.2a25.9 25.9 0 0 1-4.5-2.2 9.9 9.9 0 0 1-4.8-6 23.1 23.1 0 0 1 0-13.5c1.9-5.6 6-8.5 11.4-8.1a11.6 11.6 0 0 1 10.2 9.6 29.4 29.4 0 0 1 .3 4.8c0 1.2-.6 1.5-1.7 1.5H626c-1.2-.1-2.5.4-3.5-.3s-.4-2-.6-3.2c-.6-3.2-2.1-4.8-4.7-4.7-2.4 0-4 1.9-4.3 5v1.4c-.3 5.1.4 6.1 5 8.3l5.2 2.5a9.3 9.3 0 0 1 5 6.7 33.2 33.2 0 0 1-.3 15c-1.2 4.5-4 7.3-8.8 8a10.8 10.8 0 0 1-11.2-5.3 15.3 15.3 0 0 1-2.1-9c0-.9.4-1.3 1.3-1.3h4.3c.8 0 1.1.4 1.1 1.2a10.4 10.4 0 0 0 .5 3.6 4.2 4.2 0 0 0 4.7 3.1 4 4 0 0 0 4.1-3.6 41 41 0 0 0 .5-4.3ZM360.3 94.7V70c0-2.4 0-2.4 2.4-2.4h15.6c2 0 2 0 2.1 2.2v3.6c0 1.2-.5 1.5-1.6 1.5h-9.3c-2.4 0-2.4 0-2.4 2.4V89c0 1.8 0 1.8 1.9 1.8h7.9c1.7 0 1.7.1 1.8 1.8v3.9c0 1.3-.5 1.6-1.7 1.6h-8c-2 0-2 0-2 2v12c0 1.7.2 1.7 1.9 1.7h9.6c1.8 0 1.9 0 2 1.9v4.3c0 1.4-.6 1.6-1.8 1.6h-16.6c-1.8 0-1.8 0-1.8-1.9V94.7ZM311.3 94.8V70c0-2.4 0-2.4 2.4-2.4h15.5c2.1 0 2.2 0 2.2 2.1v3.6c0 1.2-.5 1.6-1.6 1.6h-9.3c-2.4 0-2.4 0-2.4 2.3v11.5c0 1.9 0 1.9 1.9 2h7.9c1.7 0 1.7 0 1.8 1.7v3.8c0 1.3-.4 1.7-1.7 1.7h-8.9a1 1 0 0 0-1 1v13.7c0 1 .7 1 1.5 1h9.6c2.2 0 2.2 0 2.2 2.3v4c0 1-.4 1.5-1.4 1.5h-16.3c-2.4 0-2.4 0-2.4-2.4V94.8ZM384.2 94.7V80.5a15.7 15.7 0 0 1 1.4-7.2 10.2 10.2 0 0 1 9.6-6c4.4 0 7.4 2.3 9.3 6a18 18 0 0 1 1.5 8.5c0 .9-.3 1.4-1.3 1.4h-4.3c-.8 0-1.1-.5-1.1-1.2l-.3-2.7a5.8 5.8 0 0 0-1-2.6 3.5 3.5 0 0 0-3.5-1.6 3.2 3.2 0 0 0-3 2.3 15.2 15.2 0 0 0-.6 4.5v26a12.2 12.2 0 0 0 .4 3.5 3.6 3.6 0 0 0 3.5 2.8 4 4 0 0 0 4-2.6 10.6 10.6 0 0 0 .4-4c0-1 .4-1.4 1.5-1.4h4c.8 0 1.2.3 1.3 1.1.2 4.2-.5 8-3.4 11.2a10.3 10.3 0 0 1-17.6-3.7 20.7 20.7 0 0 1-.9-6.6V94.7ZM582.3 94.3V69c0-1 .4-1.5 1.4-1.5h16.8c1.9 0 1.9 0 2 1.9v3.6c-.1 1.7-.2 1.8-1.8 1.8h-10.4c-.9 0-1.2.5-1.2 1.3v12.5c0 1.9 0 2 1.8 2h7.2c2.6 0 2.6 0 2.6 2.6v2.4c0 2.2 0 2.2-2.3 2.2h-7.2c-2 0-2.1 0-2.1 2.2v11.5c0 2 0 2 2.2 2.1h9.3c1.7 0 1.8 0 1.8 1.7v4.6c0 1-.3 1.5-1.3 1.5h-17.3c-1.4 0-1.5-.1-1.5-2V94.3ZM668.7 94.5V80.4a15.3 15.3 0 0 1 1.4-7 10.2 10.2 0 0 1 9.5-6.2c4.4 0 7.4 2.2 9.3 6a18.3 18.3 0 0 1 1.6 8.4c0 1-.4 1.6-1.4 1.5h-1.4c-1.2 0-2.6.4-3.6-.3s-.3-2.1-.5-3.2a7.7 7.7 0 0 0-1.1-3.1 3.5 3.5 0 0 0-3.6-1.5 3.1 3.1 0 0 0-2.8 2.3 14 14 0 0 0-.7 4.5V108a12 12 0 0 0 .5 3.3 3.6 3.6 0 0 0 3.6 3 4 4 0 0 0 3.8-2.8 10.9 10.9 0 0 0 .5-3.3c0-2 0-2 2-2h2c2.8 0 2.8 0 2.7 2.7a14.2 14.2 0 0 1-2.9 9 10.3 10.3 0 0 1-18-3 19 19 0 0 1-.9-6.6V94.5ZM416 98.3v-22c0-1-.5-1.3-1.3-1.3h-4.8c-1.3 0-1.7-.5-1.7-1.8v-4c0-1.2.5-1.6 1.6-1.6h18.7c2 0 2 .1 2 2v3.6c0 1.2-.5 1.7-1.7 1.7h-4.1c-1.9 0-2 0-2 1.8V120c0 1.1-.4 1.6-1.5 1.6H417c-.8 0-1.2-.4-1.2-1.2V118ZM638 98.3v-21c0-2.3 0-2.3-2.3-2.4h-4c-1 0-1.5-.4-1.5-1.4v-4.3c0-1.2.5-1.6 1.6-1.6h18.5c2.2 0 2.2 0 2.3 2.4v3.6c0 1-.5 1.4-1.5 1.3h-3.6c-2.7 0-2.7 0-2.7 2.6V120c0 1.1-.3 1.6-1.5 1.6h-3.1c-2.1 0-2.2 0-2.2-2.1v-5.8ZM335.6 94.6v-26a1 1 0 0 1 .8-1h.5c5.4-.5 5.4-.5 5.4 5v39.1c0 2.1 0 2.1 2.1 2.1h9c2.3 0 2.3 0 2.3 2.5v3.8c0 1-.3 1.5-1.4 1.5h-17.5c-1 0-1.3-.4-1.3-1.3v-1.7ZM655.8 94.3V70c0-2.4 0-2.5 2.3-2.5 5.3 0 4.4-.7 4.4 4.5v48c.1 1-.3 1.6-1.4 1.5s-2.3 0-3.4 0c-1.9 0-1.9 0-2-1.8v-6.5l.1-19ZM588 65l2.6-5 2.5-4.4c.3-.6.7-1 1.4-1h5.7c.2 1-.4 1.3-.8 1.8-1.7 2.1-3.7 4.2-5.2 6.5s-3.4 2.8-6.3 2.1Z"/>
  <path class="cls-3" d="M318.8 232.9v28.8a15.7 15.7 0 0 0 0 1.6c0 1.3-.6 1.6-1.8 1.6h-23.5c-1.7 0-1.7 0-1.7-1.7v-55a15.4 15.4 0 0 0-.3-3.5 5.7 5.7 0 0 0-11.3.1 19.6 19.6 0 0 0-.2 3.6v54.7c0 1.8 0 1.8-1.9 1.8h-23c-1.7 0-1.7 0-1.8-1.7V206a33.5 33.5 0 0 1 8.1-22.5 30.5 30.5 0 0 1 27.5-11.1 32 32 0 0 1 25.7 16.3 32.9 32.9 0 0 1 4.2 17.2ZM224.9 201.3c-1.6-.2-3.2-1-4.9-1.5-6.6-2-12.9-1-18.3 3.3-9.5 7.5-11 19-5.2 29a18 18 0 0 0 16.9 9.5 8 8 0 0 0 4.2-1 3 3 0 0 0 1.5-3.1 2.7 2.7 0 0 0-2.3-2.4 31.5 31.5 0 0 0-6.2-.4c-2 0-2 0-2-2v-16.5c0-2 0-2 2-2h21.9a2.3 2.3 0 0 1 2.3.8 38 38 0 0 1 7.2 16.3c1.8 13-4 24.8-15.5 31.3a37.3 37.3 0 0 1-23.9 4.1 38 38 0 0 1-25.6-14.6 53.2 53.2 0 0 1-12.3-36.5c.5-12 5.3-22 14-30.4a44.3 44.3 0 0 1 45.2-10.7 1.7 1.7 0 0 1 1.4 1.8v24a1 1 0 0 1-.4 1ZM43.8 232v-23.7c0-2.5.1-5.1.4-7.7a28 28 0 0 1 6-14.2 33.9 33.9 0 0 1 49-6.5c5.9 4.5 10.3 10 11.9 17.3a29.6 29.6 0 0 1-9.6 30.4 23 23 0 0 1-10.6 5.2 60 60 0 0 1-14.1 1c-1.1 0-1.6-.5-1.6-1.6v-21c0-1 .4-1.3 1.4-1.4a8.4 8.4 0 0 0 2.8-.6 5.3 5.3 0 0 0 3.8-6 6.4 6.4 0 0 0-5-5.7c-2.7-.5-4.8.5-6.2 3a11.9 11.9 0 0 0-1.2 5.9V263c0 1.8 0 1.8-1.9 1.8H45.1c-1 .1-1.4-.4-1.3-1.4V259ZM151.2 219.8v42.5c0 2.8.2 2.6-2.5 2.6h-22.2c-2.8 0-2.6.2-2.6-2.8v-85.6c0-2.2 0-2.2 2-2.2h23c2.2 0 2.2 0 2.2 2.3Z"/>
  <path class="cls-1" d="M202.5 210.8v15.9c-3.4-4-3.6-12 0-15.9Z"/>
  <path class="cls-3" d="M557 233.3v30.5a1 1 0 0 1-.9 1.1 1 1 0 0 1-.3 0h-24.5c-1.3 0-1.7-.5-1.7-1.7v-55.6a11.2 11.2 0 0 0-1.1-5.6 5 5 0 0 0-6.6-2.2 4.8 4.8 0 0 0-1.8 1.5 7.8 7.8 0 0 0-1.7 4.9v11.7c0 1.4.5 1.7 1.7 1.6h4c1.2 0 1.6.5 1.6 1.6v20.4c0 1.8 0 1.8-2 1.8h-3.3c-2 0-2 0-2 2v17.8c0 1.8 0 1.9-1.9 1.9h-24c-1 0-1.5-.4-1.4-1.4v-56.2a39.6 39.6 0 0 1 2.9-16.2 29.9 29.9 0 0 1 24-18.4 36.3 36.3 0 0 1 17.6 1.1c8.8 3 14.5 9.3 18.3 17.6a37.7 37.7 0 0 1 3.1 16.1v25.7ZM335 233v-26.1a37 37 0 0 1 4.2-18.3c5-9 12.6-14.1 22.6-15.8a36.3 36.3 0 0 1 18 1.2c8.7 3 14.3 9.3 18 17.5a36 36 0 0 1 3.1 15.1v56.2c0 2 0 2.1-2.1 2.1H376c-2.3 0-2.3 0-2.3-2.4v-54.7a11.4 11.4 0 0 0-1.2-5.8 5 5 0 0 0-6.6-2.2 4.8 4.8 0 0 0-1.8 1.5 7.6 7.6 0 0 0-1.7 4.6v12c0 1.2.3 1.7 1.5 1.6h3.8c2 0 2 0 2 2V241c0 2.3 0 2.3-2.4 2.3h-3.1c-1.7 0-1.8 0-1.8 1.7v18c0 1.7 0 1.9-1.9 1.9H336.8c-1.2 0-1.7-.4-1.7-1.7v-8.8ZM446 174.3h33a1 1 0 0 1 1 1v23c-.1 1.7-.1 1.8-1.9 1.8h-14.6c-4 0-4 0-4 3.9v58.3c0 2.6 0 2.6-2.6 2.6h-22c-2.3 0-2.3 0-2.3-2.4v-59.3c0-3.6.3-3-3.3-3.1H414c-2 0-2 0-2-2v-21.8c0-2 0-2 2.1-2Z"/>
  <path class="cls-1" d="M526.6 209.8v4.7c0 1.3-.3 1.9-1.6 1.8h-1.7c-1 0-1.3-.5-1.3-1.4l.1-10.6c.1-2 .8-2.7 2-2.7s2.1 1 2.2 2.9v5.3ZM370.5 209.6v5.3c0 1-.4 1.4-1.4 1.4h-1c-2 0-2 0-2.1-2.2v-8.4a8.5 8.5 0 0 1 .4-2.8 1.8 1.8 0 0 1 2-1.3 1.8 1.8 0 0 1 1.1.7 2.9 2.9 0 0 1 .7 2v5.3Z"/>
  <path class="cls-3" d="M650.7 219.6c0-16.5 6.4-28.7 18.5-37.6a46.3 46.3 0 0 1 50-4.8 45 45 0 0 1 26 48 48.9 48.9 0 0 1-24 36c-7.2 4.4-15.2 6-23.6 6a48 48 0 0 1-46-39.5 49.6 49.6 0 0 1-.9-8.1ZM698 241c9.7 0 18.2-6.8 20.6-16.9 1.9-7.6.2-14.4-5.7-19.9a21.4 21.4 0 0 0-25.4-2.8 20 20 0 0 0-9.6 23A21.2 21.2 0 0 0 698 241ZM645.5 265h-25.8a2.8 2.8 0 0 1-3-2l-11.5-26a7 7 0 0 1-.7-3v-19.4c0-2.1.3-2 2-2.1a17 17 0 0 0 5.4-1.2c2.5-1 3.4-3 3.5-5.5s-.6-4.4-2.9-5.7a11 11 0 0 0-4.3-1.2c-2.1-.2-4.2-.1-6.3-.2-.9 0-1.3.4-1.3 1.3v63.3c0 1.1-.3 1.6-1.5 1.6h-24c-1 0-1.5-.4-1.4-1.4v-86.2c0-3.3-.3-3 3.1-3H610a33.5 33.5 0 0 1 24.7 10.4c7.4 7.5 9 16.5 6.7 26.4a28.4 28.4 0 0 1-9.3 15.1c-1.6 1.5-1.7 1.5-.8 3.6l13.6 32.3a5 5 0 0 1 .7 2.8Z"/>
  <path class="cls-1" d="M604.2 205.6V204c0-2.5.2-2.6 2.8-2.4 3.1.4 4.7 2.3 4.2 5a2.9 2.9 0 0 1-2.3 2.4c-1.3.3-2.8.6-4 .1-1.6-.7-.4-2.5-.7-3.5Z"/>
  <path class="cls-3" d="m99.1 82.5-9 .5a2.3 2.3 0 0 1-2.7-1.4 17.4 17.4 0 0 0-1.9-2.8 14.6 14.6 0 0 0-24.7 1.9C54.5 92 64 102.6 73.1 102.8c8.5.2 13.2-4.8 15.2-11.4a7.5 7.5 0 0 0 .3-1.4c.1-1 .7-1.4 1.8-1.3 6.2.1 12.5 0 18.7.4 1.8.1 2.1 0 1.7 2.3-1 6.3-2.6 12.3-6.2 17.7a34.2 34.2 0 0 1-17.3 13.5 36.2 36.2 0 0 1-33.3-3c-10.1-6.6-16.1-16-17.4-28S39.4 69.4 48.3 61A36 36 0 0 1 67 51c16-2.7 30.4 3.2 39.1 18a40.3 40.3 0 0 1 4.4 10.6c.5 2 .4 2-1.5 2.2l-9.8.5ZM121.1 98.3V77.2a28 28 0 0 1 4.6-16.1 23.2 23.2 0 0 1 15-10c6.1-1.1 12.2-1.1 17.9 1.7 7.4 3.7 11.6 10 13.6 17.9a33.3 33.3 0 0 1 .8 8V121c0 2.3 0 2.4-2.4 2.4h-17c-2.2 0-2.2 0-2.2-2.3v-42a17.9 17.9 0 0 0-.3-3.6c-.5-2.4-2-3.6-4-3.6a3.6 3.6 0 0 0-3.4 2 8.7 8.7 0 0 0-1 4.2V86c0 1.2.4 1.7 1.6 1.6h2.9c.9 0 1.3.5 1.3 1.4v16c0 1-.5 1.4-1.5 1.4h-2.6c-1.7 0-1.7 0-1.7 1.8v12.5c0 2.9.1 2.6-2.6 2.6h-16.8c-2.2 0-2.2 0-2.2-2.2Z"/>
  <path class="cls-1" d="M73.2 98.5a10.2 10.2 0 0 1-10-10.3 10 10 0 0 1 10-10h.4a10.5 10.5 0 0 1 10.2 10.2 10.3 10.3 0 0 1-10.4 10.1ZM148.4 79.8v3.5c0 .8-.2 1.2-1 1.2s-1.5-.1-1.5-1v-7.7c0-.7.3-1.5 1.2-1.5s1.3.8 1.3 1.7v3.8Z"/>
  <path class="cls-3" d="M232.6 98.1V77.5a30 30 0 0 1 1.7-10.6A23.6 23.6 0 0 1 253 51a27.9 27.9 0 0 1 14.4.8 24.6 24.6 0 0 1 15.3 15.8 29.8 29.8 0 0 1 1.7 10.5v43c0 2.2 0 2.2-2.2 2.2h-17c-2.3 0-2.4 0-2.4-2.3V78.7a10 10 0 0 0-.8-4.6 3.6 3.6 0 0 0-3.4-2.2A3.8 3.8 0 0 0 255 74a8.5 8.5 0 0 0-1 4v8c0 1.2.4 1.7 1.5 1.6h2.9c.9 0 1.5.4 1.5 1.4v16c0 1-.4 1.4-1.3 1.4h-2.6c-1.9 0-2 0-2 1.9v13.6c0 1-.3 1.4-1.4 1.4h-18.5c-1.3 0-1.6-.5-1.6-1.7V98ZM184.2 102.5c1.3.3 2.4 1 3.5 1.3a7 7 0 0 0 6.6-2 4.5 4.5 0 0 0 1.2-4.9 27.4 27.4 0 0 0-2.3-5.2 48.8 48.8 0 0 1-4.5-11.1 24.7 24.7 0 0 1 21-30 25.6 25.6 0 0 1 9.7.8 2 2 0 0 1 1.7 2.3v16.6c0 1.7 0 1.8-1.7 1.4a5.7 5.7 0 0 0-6.3 2 6 6 0 0 0-.8 6.5l2.2 4.5 3.2 6.7a23.5 23.5 0 0 1-10.4 30c-7 4-14.2 5-21.9 2-.9-.3-1.4-.7-1.4-1.8v-18.4a3.5 3.5 0 0 1 .2-.7Z"/>
  <path class="cls-1" d="M259.9 79.7v3.6c0 1-.4 1.3-1.3 1.3s-1.3-.4-1.3-1.3v-7.5c0-.7.2-1.5 1.2-1.5s1.3.7 1.3 1.6v3.8ZM439.9 83.2v-6.7c0-1.1.4-1.5 1.5-1.6 5.5-.3 7.3 1.2 7.7 6.7a26.2 26.2 0 0 1-.3 5.7c-.5 3-1.9 4.3-4.8 4.4-5 0-4 .4-4.1-4v-4.5ZM476.9 94.5v12.7a19.4 19.4 0 0 1-.3 3.6 4.3 4.3 0 0 1-8.5 0 16.2 16.2 0 0 1-.3-3.3V81.6a16.3 16.3 0 0 1 .2-2.6c.4-2.5 2-4 4.3-4a4.3 4.3 0 0 1 4.3 4 23 23 0 0 1 .2 3.1v12.4ZM496.5 94.7V77.2c0-2.3 0-2.3 2.3-2.3a15.4 15.4 0 0 1 2.1.2 3.8 3.8 0 0 1 3.2 2.6 13 13 0 0 1 .7 4.7v24.9a16.8 16.8 0 0 1-.4 3.3c-.5 2.3-1.7 3.4-4.1 3.6-3.7.4-3.8.4-3.8-3.3ZM533 94.5v12.7a20.7 20.7 0 0 1-.2 3.4 4.3 4.3 0 0 1-8.5 0 16 16 0 0 1-.3-3.1V81.6a16.3 16.3 0 0 1 .2-2.6c.4-2.5 2-4 4.3-4a4.2 4.2 0 0 1 4.3 4 26.8 26.8 0 0 1 .3 3.6v12ZM711.5 94.5v13a16.2 16.2 0 0 1-.3 3.3 4.3 4.3 0 0 1-8.4 0 12.4 12.4 0 0 1-.4-2.8V81.2a12 12 0 0 1 .3-2.7 4.3 4.3 0 0 1 8.5 0 17.7 17.7 0 0 1 .3 3.4v12.6Z"/>
  <path class="cls-2" d="M698 241c-9.4 0-17.7-6.9-20-16.6a20 20 0 0 1 9.5-23 21.4 21.4 0 0 1 25.4 2.8c6 5.5 7.6 12.3 5.7 20-2.4 10-11 16.8-20.6 16.8Zm-15.8-21.1a16.5 16.5 0 1 0 33 .2c-.1-8.4-6.8-16.6-16.5-16.6a16.5 16.5 0 0 0-16.6 16.3Z"/>
  <path class="cls-1" d="M682.1 219.9a16.5 16.5 0 0 1 16.5-16.4c9.7 0 16.4 8.2 16.5 16.6a16.5 16.5 0 0 1-33-.2Z"/>
</svg>
