<svg version="1.1" id="Layer_1" xmlns="http://www.w3.org/2000/svg" x="0" y="0" viewBox="0 0 722.9 230" style="enable-background:new 0 0 722.9 230" xml:space="preserve">
  <style>
    .st0{fill:#fbf5f8}.st1{fill:#0546ec}.st2{fill:none}
  </style>
  <path class="st0" d="M128 180.8c-.4.9-.5 1.9-.4 2.9v42.7c0 .9-.5 1.3-1.3 1.3H87.9c-1.2.1-1.8-.4-1.7-1.6v-47.5l-.1-2.4c0-.3-.1-.6-.5-.7s-.6.2-.7.5c-.8 2-1.7 3.9-2.8 5.8-6 9.7-14.5 15-26 15.6-2.5.1-5 .3-7.4.2-2.2-.1-2.2 0-2.2 2.3l-.1 20.6-.1 4.8c-.1 1.6-.1 1.8-1.8 1.8h-35c-1 0-1.5-.4-1.5-1.4v-59.5l.1-5.5c.3-12 5.5-21.5 14.2-29.3a37.5 37.5 0 0 1 49.9-.9c5.4 4.1 9.7 9.6 12.5 15.9l.5 1.1c.1.2.4.3.6.3.2 0 .4-.2.4-.5l.1-2.1v-19.9c0-2.5 0-2.6 2.5-2.6h36.5c2.4 0 2.4 0 2.4 2.6v32.6c-.1 1 0 1.9.3 2.9 1.3-.4 1-1.6 1.2-2.4a50.6 50.6 0 0 1 39-37.2c7.4-1.6 14.6-.8 21.9.7 2.5.4 5 1.1 7.4 1.9 2.4.9 2.8 1.6 2.8 4.1v31.9c0 3.5-.2 3.6-3.6 3.6-1.1 0-2.2-.2-3.3-.6-2.8-.9-5.7-1.5-8.7-1.7-3.2-.3-6.5.5-9.1 2.4.8 1 1.7.7 2.5.7h23c3.1-.1 6.2 1.1 8.4 3.4 2.7 2.5 4.8 5.6 6.3 9 .2.8.6 1.5 1.2 2.1.4-.8.5-1.8.4-2.7 0-5.8-.1-11.7.1-17.5a37.4 37.4 0 0 1 40.7-36.6 38 38 0 0 1 30.7 18.4 34 34 0 0 1 4.9 16.4l.1 4.8V225c-.1 1.7-.1 1.8-1.8 1.9h-.5l-31.9.1c-2.4 0-2.4 0-2.4-2.6l.2-59v-2.2c.1-.7-.4-1.3-1.1-1.4h-.2c-.9 0-1.6.2-1.8 1.2l-.1 2.1.2 51.8v7.9c0 1.9 0 2-2 2.1H248l-27.6-.1h-1c-1.9-.1-1.9-.1-1.9-1.9v-19.2c.1-.9 0-1.8-.3-2.7-1 .4-1 1.4-1.3 2.1-2 5.3-5.2 10.2-9.3 14.1a40.5 40.5 0 0 1-22.5 10.2c-21.5 3.3-46.8-12.7-53.4-39.4l-1.6-7.7c-.3-.4-.1-1.2-1.1-1.5zm160.7 8v-26.9c0-6.1-1-12-4.2-17.3a32 32 0 0 0-25.7-16.3c-11-1-20.3 2.6-27.5 11.1a33.9 33.9 0 0 0-8.1 22.5V219c.1 1.7.1 1.8 1.8 1.8h23c1.9 0 1.9 0 1.9-1.8v-54.7c0-1.2 0-2.4.2-3.6a5.8 5.8 0 0 1 6.6-4.7c2.3.4 4.2 2.2 4.7 4.5.2 1.2.3 2.4.2 3.6V219c.1 1.7.1 1.7 1.8 1.7H287c1.2 0 1.8-.3 1.7-1.6v-30.3zm-93.9-31.6c.3-.2.5-.6.4-.9v-24c.1-.9-.6-1.7-1.4-1.8a44.2 44.2 0 0 0-45.2 10.8 43.5 43.5 0 0 0-13.9 30.4 53.4 53.4 0 0 0 12.3 36.5 37.8 37.8 0 0 0 25.6 14.6c8.4 1.1 16.4.1 23.9-4.1a30.4 30.4 0 0 0 15.5-31.3 38 38 0 0 0-7.2-16.3 2.3 2.3 0 0 0-2.3-.9h-21.8c-2 0-2.1 0-2.1 2v16.6c0 2 0 1.9 2 2 2.1-.1 4.2.1 6.2.4 1.2.2 2.2 1.1 2.4 2.4.3 1.3-.4 2.6-1.6 3.2-1.3.7-2.7 1-4.2.9a18 18 0 0 1-16.9-9.5c-5.8-10.1-4.3-21.5 5.2-29.1a19.3 19.3 0 0 1 18.4-3.3c1.6.4 3.1 1.3 4.7 1.4zM13.8 188v31.4c0 1 .3 1.5 1.4 1.4H39c1.8 0 1.8 0 1.9-1.9v-56.7c-.1-2 .3-4 1.2-5.8 1.4-2.6 3.4-3.6 6.1-3.1 2.8.6 4.8 2.9 5 5.8a5.2 5.2 0 0 1-3.7 6c-.9.4-1.8.5-2.8.6-1 0-1.4.4-1.4 1.5v20.9c0 1.1.4 1.5 1.6 1.6 4.7.3 9.5-.1 14.1-.9 4-.8 7.6-2.6 10.7-5.2a29.5 29.5 0 0 0 9.5-30.4 30 30 0 0 0-11.8-17.3 34 34 0 0 0-49.1 6.6c-3.3 4.1-5.4 9-6 14.2-.2 2.5-.3 5.1-.3 7.7-.3 7.7-.2 15.7-.2 23.6zm107.4-12.3v-43.2c0-2.3 0-2.3-2.2-2.3H96c-2.1 0-2.1 0-2.1 2.2v85.7c0 3-.2 2.8 2.7 2.8h22c2.7 0 2.6.2 2.6-2.6v-42.6zm51.4-9c-3.6 3.8-3.4 12 0 15.9v-15.9zM416 123.7c11.8.1 23.7.2 35.5-.1l3.4.1c1.2 0 1.4.6 1.5 1.5l.1 2.2-.1 15.6c0 .8-.4 2.1.5 2.4 1.1.3 1.1-1.1 1.4-1.8a35.1 35.1 0 0 1 29.4-22.1c6.6-1.1 13.3-.6 19.7 1.3a35.6 35.6 0 0 1 21.4 19.7 42 42 0 0 1 3.8 17.5v64.3c0 2.1 0 2.1-2.2 2.1h-24.5c-2.2 0-4.5.2-6.7.1-1.2-.1-1.7-.5-1.9-1.6l-.2-2.6v-17.8c0-2.5 0-2.5-2.5-2.4h-1.2c-.6-.1-1.1.4-1.2 1v1.4l-.2 18.7v1c-.1 2.2-.3 2.4-2.6 2.4h-32.6c-.9 0-1.3-.5-1.3-1.4v-58.8c0-4.3.4-3.9-4-4h-13.4c-3 0-3 0-3.1 3.1l-.3 57.8c0 4.6.4 3.8-3.8 3.9l-31.4.3h-1.4c-.5.1-1.1-.2-1.2-.8v-61.1c0-3.2 0-3.2-3.1-3.2h-13.7c-3.5 0-3.3-.1-3.3 3.2v59c-.1 1.7-.1 1.8-1.8 1.8h-1c-9.4.1-18.9-.2-28.3.1l-1.9-.1c-2.3-.1-2.6-.4-2.8-2.6V204.2c0-2.1 0-2.1-2.1-2.2h-.5c-2.3 0-2.3 0-2.3 2.2l-.2 18.7v1c-.1 2.4-.2 2.5-2.6 2.5h-32.4c-1 0-1.5-.4-1.5-1.4v-64c-.1-4.9.5-9.8 1.8-14.5a34.3 34.3 0 0 1 24.2-23.9c8-2.4 16.6-2.6 24.6-.4a34.8 34.8 0 0 1 21.1 17 37.3 37.3 0 0 1 4.2 9.7c.1.2.3.3.6.3s.5-.2.5-.4c.1-.7.2-1.4.1-2.1 0-6.4-.2-12.8-.1-19.2 0-4.5-.5-3.7 3.7-3.8H416zm110.9 65.5v-25.7c.2-5.5-.9-11-3.1-16.1a31.1 31.1 0 0 0-35.8-18.7 29.8 29.8 0 0 0-24 18.4 38.8 38.8 0 0 0-2.9 16.2v56.2c-.1 1 .4 1.4 1.4 1.4h24c1.8 0 1.9 0 1.9-1.9v-17.8c0-1.9 0-1.9 2-2h3.4c1.8 0 1.9 0 1.9-1.9V177c0-1.1-.3-1.6-1.5-1.6h-4.1c-1.2 0-1.8-.2-1.7-1.6l.1-11.8c0-1.8.6-3.5 1.7-4.9a5 5 0 0 1 6.9-1c.6.5 1.1 1.1 1.5 1.8.9 1.7 1.3 3.6 1.2 5.6v55.6c-.1 1.2.4 1.7 1.6 1.7h24.5c.5.1 1.1-.3 1.2-.8v-2.3l-.2-28.5zm-221.9-.3v30.2c0 1.2.4 1.7 1.7 1.6h23.8c1.9 0 1.9 0 1.9-1.8v-18c0-1.7 0-1.7 1.8-1.7h3.1c2.4 0 2.4 0 2.4-2.3v-19.4c0-2 0-2-2-2.1h-3.8c-1.3 0-1.5-.4-1.5-1.6l.1-12c0-1.7.6-3.3 1.7-4.7a5 5 0 0 1 6.9-1.1c.6.5 1.1 1.1 1.5 1.8.9 1.8 1.3 3.8 1.2 5.8v54.7c0 2.4 0 2.4 2.3 2.4h22.8c2.1 0 2.1 0 2.1-2.1v-56.2c.1-5.2-1-10.4-3.1-15.2a31 31 0 0 0-36.1-18.6 29.8 29.8 0 0 0-22.5 15.7 37.5 37.5 0 0 0-4.1 18.3c-.2 9-.2 17.7-.2 26.3zm111-58.7h-31.9c-2.2 0-2.2 0-2.2 2V154c0 1.9 0 1.9 2.1 1.9h15.4c3.6 0 3.2-.5 3.2 3.1v59.3c0 2.4 0 2.4 2.3 2.4H427c2.6 0 2.6 0 2.6-2.6v-58.3c0-3.9 0-3.9 4-3.9h14.6c1.8 0 1.8 0 1.8-1.7v-23c0-.6-.4-1-.9-1H416zm80.5 35.5h-.3v-5.3c-.1-1.9-.9-2.9-2.1-2.9s-1.9.8-2 2.8l-.1 10.6c0 .9.3 1.4 1.2 1.4h1.7c1.3.1 1.7-.5 1.6-1.7v-4.9zm-156-.2h-.3v-5.3a3 3 0 0 0-.7-2c-.5-.8-1.6-1-2.4-.5-.4.2-.7.6-.8 1.1a9 9 0 0 0-.4 2.8v8.4c0 2.1 0 2.1 2.1 2.2h1c1 .1 1.4-.4 1.4-1.4l.1-5.3zM618.9 149.5c.8-.8 1.4-1.7 1.9-2.6a54.2 54.2 0 0 1 30.2-23.6c17.3-5.3 33.7-3 48.7 7.2a49.8 49.8 0 0 1 23.2 43.9 56 56 0 0 1-23.8 45.7c-9 6.8-19.4 9.6-30.6 9.7s-21.8-2.7-30.9-9.5a56.6 56.6 0 0 1-23.7-39.8c-.1-.9.2-2.3-.6-2.6-1.2-.4-1.5 1.1-2.2 1.8-1.3 1.2-2.5 2.5-3.9 3.6-2 1.6-2 1.6-.9 4a3902 3902 0 0 0 16.9 37.7c.6 1.4.5 1.7-1.1 1.7h-34.8c-1.6.2-3.1-.9-3.6-2.4l-8-19.5c-.2-1-.7-1.8-1.4-2.5-.7.8-.4 1.7-.4 2.5l-.1 18c0 4 0 4-3.8 4h-30.7c-1.9-.1-1.9-.1-2-1.9V128c0-3.2 0-3.2 3.1-3.2h40.5c10.7-.1 21 3.9 28.9 11.1 3.5 3.1 6.3 6.9 8 11.3.1.9.5 1.7 1.1 2.3zm1.8 26a48 48 0 0 0 46.8 47.6c8.4 0 16.5-1.5 23.7-6a48.6 48.6 0 0 0 24-36 45 45 0 0 0-26-47.9 46.4 46.4 0 0 0-50 4.7 43.7 43.7 0 0 0-18.5 37.6zm-5.2 45.4c0-1-.2-1.9-.7-2.8l-13.5-32.3c-.9-2.2-.9-2.2.8-3.6 4.6-3.9 7.9-9.2 9.2-15.1 2.3-9.9.7-19-6.7-26.4a33.3 33.3 0 0 0-24.7-10.5h-33.1c-3.5 0-3.1-.3-3.1 3.1v86.1c-.1 1 .3 1.4 1.4 1.4h24c1.2 0 1.6-.5 1.5-1.6v-63.4c0-.9.4-1.3 1.3-1.3 2.1.1 4.2 0 6.2.2 1.5.1 3 .6 4.3 1.3 2.3 1.2 3 3.2 2.9 5.6s-1 4.5-3.5 5.5c-1.7.7-3.5 1.1-5.4 1.2-1.6.1-2 0-2 2.1V190c0 1 .2 2.1.6 3l11.5 25.9a2.7 2.7 0 0 0 3 2h26zm-41.4-59.4c.4 1-.9 2.8.7 3.5 1.2.5 2.7.2 4-.1 1.2-.2 2.1-1.2 2.3-2.5.5-2.7-1-4.5-4.2-4.9-2.6-.3-2.8-.1-2.8 2.4v1.6zM84.4 57.1a41.4 41.4 0 0 1-37 30.2c-9.6 1-18.7-.8-26.8-6.2A43 43 0 0 1 0 42.5C.2 28.3 7 17.4 17.8 8.8a42.8 42.8 0 0 1 46.8-3.4 45.7 45.7 0 0 1 18.2 20.2l1.8 3.7c.5-.9.8-1.9.8-3 .9-8.2 5.3-15.5 12.1-20.2 4.6-3.1 9.9-5 15.5-5.4 5.8-.8 11.7 0 17.2 2.2 7.9 3.4 13 9.4 16.1 17.2a32 32 0 0 1 2.1 12.2v50.9c0 2.4 0 2.4-2.4 2.4l-23 .1c-5.1 0-4.2-.2-4.2-4.2V67.6c0-1.5-.3-1.7-1.6-1.8s-1.5.7-1.4 1.7V80l-.1 3.8c.1.9-.5 1.7-1.4 1.8H86.7c-1.7-.1-1.7-.2-1.8-1.8V60.6c.1-1.2-.1-2.4-.5-3.5zM69.1 38.4c3.3-.2 6.6-.3 9.8-.6 1.9-.1 2-.2 1.5-2.2A39 39 0 0 0 76 25 36.1 36.1 0 0 0 37 7a35.7 35.7 0 0 0-18.8 10C9.5 25.4 5.5 35.6 6.7 47.5s7.2 21.4 17.3 28a35.8 35.8 0 0 0 33.3 3.1A34 34 0 0 0 74.5 65a43.1 43.1 0 0 0 6.2-17.7c.4-2.3.1-2.2-1.7-2.3-6.2-.4-12.5-.3-18.7-.4-1.1 0-1.7.3-1.8 1.4l-.3 1.4C56.3 54 51.5 59 43.1 58.8 34 58.5 24.4 48 30.8 36.6a14.7 14.7 0 0 1 24.7-1.9c.7.9 1.3 1.8 1.8 2.8a2.3 2.3 0 0 0 2.6 1.5l9.2-.6zm22 15.8V77c0 2.2 0 2.3 2.2 2.3h16.8c2.7 0 2.5.2 2.6-2.6V64.1c0-1.7.1-1.7 1.7-1.8h2.6c1 0 1.4-.4 1.4-1.4V44.8c0-.9-.3-1.3-1.3-1.3h-2.9c-1.2.1-1.7-.4-1.7-1.7v-7.9c0-1.4.4-2.9 1.1-4.1.6-1.3 1.9-2 3.3-2 2.1 0 3.6 1.2 4.1 3.6l.3 3.6v42c0 2.2 0 2.2 2.2 2.2h17c2.4 0 2.4 0 2.4-2.4V34.6c.1-2.7-.2-5.4-.8-8.1-2-7.9-6.1-14.2-13.6-17.9A27.2 27.2 0 0 0 110.7 7a23 23 0 0 0-15 9.9A28 28 0 0 0 91.1 33v21.2zm-47.8.3c5.7.2 10.4-4.2 10.6-9.9v-.2a10.5 10.5 0 0 0-10.2-10.3 10 10 0 0 0-10.4 9.6v.4a10.2 10.2 0 0 0 10 10.4zm75.1-18.8v-3.8c0-.8-.2-1.7-1.2-1.7s-1.2.8-1.2 1.6l-.1 7.6c0 1 .6 1.1 1.4 1.1s1.1-.5 1.1-1.2v-3.6zM196.6 26l1.2-4.5a27.5 27.5 0 0 1 17.6-18.7c6.7-2.5 14-3 21-1.5a29.1 29.1 0 0 1 21.5 19.4c1.4 3.8 2 7.9 1.9 12v51.6c.1.6-.4 1.2-1 1.3H257c-7.5.1-15-.1-22.5.1-4.3.1-4.3 0-4.3-4.3V67.7c0-1.7-.3-1.9-1.7-1.9s-1.5.2-1.5 1.8l.1 12.5v3.6c-.1 1.4-.5 1.8-1.9 2H197.6c-.6 0-1.1-.4-1.2-1V33.8c-1.9 1.5-3.5.8-5.1-.1-.9-.5-1.9-1.4-2.9-.6s-.2 2 0 2.9l2.1 5.1 2.9 6.6c2.1 5.1 2.4 10.8.7 16A33 33 0 0 1 165.3 87c-4 .3-8-.4-11.7-2.1a5.8 5.8 0 0 1-3.7-5.6l-.6-15.1c-.1-2.6 0-5.3.4-7.9 0-1.6 1.3-2.8 2.9-2.8.4 0 .9.1 1.3.3l2.2 1c1.7.6 2.9.4 3.5-.5.8-1.2.3-2.4-.5-3.3a33.3 33.3 0 0 1-6-17.8c-.5-7.5 1.9-15 6.8-20.7a30.7 30.7 0 0 1 33.5-8.7c1.3.5 2.1 1.8 2.2 3.1.5 5.1.4 10.2.6 15.3l.4 3.8zm6 28.1v23.5c0 1.2.3 1.7 1.6 1.7h18.5c1 0 1.4-.3 1.4-1.4V64.2c0-1.8.1-1.8 1.9-1.9h2.6c.9 0 1.3-.4 1.3-1.3V45c0-1-.5-1.4-1.5-1.4h-2.9c-1.1.1-1.6-.4-1.5-1.6v-8.2c0-1.4.4-2.7 1-3.9a4 4 0 0 1 3.5-2.1c1.5 0 2.8.8 3.4 2.2.7 1.5.9 3.1.8 4.7v42.2c0 2.4 0 2.4 2.4 2.4h17c2.2 0 2.2 0 2.2-2.3V34.1c.1-3.6-.5-7.2-1.7-10.6a24.3 24.3 0 0 0-15.3-15.8 27.1 27.1 0 0 0-14.4-.7 23.6 23.6 0 0 0-18.8 15.9c-1.2 3.4-1.8 7-1.7 10.6l.2 20.6zm-48.4 4.4-.3.6-.1 18.5c0 1.1.6 1.5 1.5 1.8 7.6 3 14.9 2 21.9-2a23.6 23.6 0 0 0 10.4-30c-.9-2.3-2-4.5-3.1-6.7l-2.2-4.5c-1-2.2-.7-4.7.8-6.5 1.5-1.9 4-2.6 6.2-1.9 1.6.4 1.7.3 1.7-1.5V9.7c.2-1.1-.6-2.2-1.7-2.4-3.2-.9-6.5-1.2-9.7-.8a24.7 24.7 0 0 0-20.9 30c1 3.9 2.5 7.6 4.4 11.1a25 25 0 0 1 2.3 5.3c.6 1.7.1 3.6-1.2 4.8a7 7 0 0 1-6.6 2c-1.1-.3-2.1-.9-3.4-1.2zm75.6-22.9v-3.8c0-.9-.4-1.6-1.4-1.6s-1.1.8-1.1 1.6l-.1 7.4c0 .9.4 1.3 1.3 1.3s1.3-.3 1.3-1.3v-3.6zM539.2 47c-.6.7-1 1.6-1.1 2.5l-4.8 16.6c-.5 1.7-.6 1.7-2.3 1.7-1.4.1-1.8-.7-2.1-1.8l-4.8-16.8c-.1-.8-.5-1.6-1-2.2-.4.8-.5 1.7-.4 2.6v25.2c0 2.9.1 2.6-2.6 2.6-4.2 0-4.2 0-4.2-4.1V25.1c-.1-1.1.5-1.5 1.6-1.6 4.8-.3 4.8-.3 6.2 4.3l6.4 21.1c.2.8.5 1.6 1 2.3a8 8 0 0 0 1.1-2.5l6.9-23c.7-2.2.7-2.2 3-2.2h2.9c.7-.1 1.3.4 1.4 1v51.3c.1 1.1-.4 1.6-1.5 1.6h-4.1c-.8 0-1.2-.3-1.2-1.1V49.9c.1-1 0-2-.4-2.9zM403.1 50.7v-26c-.1-.5.3-1.1.8-1.2h.4c4.1.1 8.2-.3 12.2.3 3.6.4 6.6 2.9 7.8 6.4a26 26 0 0 1 .1 17.4c-.5 1.6-1.5 3-2.9 4-1.3.9-1.3 1.9-.9 3.3l5.8 19.5.5 1.8c.1.6-.1 1.1-.8 1.1h-5c-1.1 0-1.2-.8-1.4-1.6l-3.3-12-2.2-7.9c-.4-1.3-2.9-2.1-4-1.2-.7.5-.4 1.3-.4 2V76c0 .9-.3 1.3-1.2 1.3H405c-1.9 0-1.9 0-1.9-1.8V50.7zm6.7-11.6v4.6c.1 4.3-1 4 4.1 3.9 2.9-.1 4.3-1.4 4.8-4.4.3-1.9.4-3.8.2-5.7-.4-5.5-2.2-7-7.6-6.7-1.1.1-1.6.5-1.5 1.6v6.7zM453.6 51.8c-.1 4.3.3 9.8-.2 15.2-.5 4.9-3 8.6-7.7 10.3-5.6 2-11.9-1.4-13.9-7.4-.6-1.8-.8-3.8-.8-5.7V36.9c-.1-2.6.5-5.3 1.6-7.7 2.1-3.9 5.4-6.1 9.9-6 4.1 0 7.9 2.4 9.5 6.2 1.1 2.5 1.7 5.2 1.5 7.9l.1 14.5zm-6.8-1.3V38l-.2-3.1c-.1-2.3-2-4-4.3-4s-3.9 1.5-4.3 4l-.2 2.6v25.8l.3 3.3a4.3 4.3 0 0 0 8.4 0l.3-3.6V50.5zM459.7 50.6V24.9c0-.9.3-1.4 1.2-1.4 3.8.1 7.7-.3 11.5.3 4.4.7 7 3.6 8.3 7.7.5 1.5.7 3.1.7 4.7.1 9.6.3 19.2-.1 28.8-.1 1.2-.2 2.4-.5 3.6a10.6 10.6 0 0 1-9.9 8.7c-3.3.2-6.5.1-9.8.2-1 0-1.5-.4-1.4-1.4V50.6zm6.8 0v16.3c0 3.6.1 3.7 3.8 3.3 2.4-.3 3.6-1.3 4.1-3.6l.3-3.3v-25c.1-1.6-.2-3.2-.7-4.7a4 4 0 0 0-3.2-2.6 15 15 0 0 0-2.1-.2c-2.2 0-2.3 0-2.3 2.2l.1 17.6zM509.8 51.8c-.1 4.3.3 9.8-.2 15.2-.2 3.8-2.3 7.3-5.6 9.3-6.1 3.7-13.8.6-16-6.4-.6-1.9-.8-3.9-.8-5.9V37.2c-.1-2.8.5-5.6 1.8-8.1 2.2-3.8 5.4-5.9 9.8-5.8 4 0 7.7 2.3 9.4 6 1.2 2.5 1.8 5.3 1.7 8.1l-.1 14.4zm-6.8-1.3v-12l-.2-3.6c-.1-2.3-2-4.1-4.3-4-2.3 0-3.9 1.5-4.3 4l-.2 2.6v25.9c0 1 .1 2.1.3 3.1.4 2.4 2.6 4 4.9 3.6a4.2 4.2 0 0 0 3.6-3.6c.2-1.1.3-2.2.2-3.3V50.5zM688.1 50.7c0 5.4.3 10.7 0 16.1-.2 4.9-3.4 9.2-8.1 10.7a11 11 0 0 1-13.5-7.5c-.6-1.9-.9-3.9-.8-5.9V37a16 16 0 0 1 1.8-8c2.2-3.7 5.3-5.8 9.6-5.7 4 0 7.7 2.3 9.5 5.9 1 1.7 1.5 3.7 1.6 5.7l-.1 15.8zm-6.6-.2V37.8l-.2-3.3a4.3 4.3 0 0 0-8.5 0c-.2.9-.3 1.7-.3 2.6V64c0 1 .1 1.9.3 2.9a4.3 4.3 0 0 0 8.4 0l.3-3.3V50.5zM709 62.2c.7-4.6-1.2-7.5-5.6-9-1.5-.6-2.9-1.3-4.3-2.1-2.7-1.4-4.7-4-5.4-7a23 23 0 0 1 .4-13c1.8-5.4 6-8.3 11.2-7.9 5.1.5 9.2 4.4 10.2 9.4.3 1.7.4 3.3.3 5 0 1-.4 1.5-1.4 1.5h-1.2c-1.3-.1-2.7.5-3.7-.3s-.5-2.2-.7-3.4c-.5-2.7-1.7-4.1-3.7-4.4a4 4 0 0 0-4.6 2.6c-1 2.6-1.1 5.5-.3 8.2a4.4 4.4 0 0 0 2.5 2.7c1.9.9 3.7 1.8 5.7 2.6 4.6 2 6.8 5.5 7.2 10.4a44 44 0 0 1-.2 9.6l-.7 3a10 10 0 0 1-7.7 7.4c-4 1-8.2-.3-10.9-3.4-2.7-3-3.5-6.7-3.4-10.7-.1-.6.4-1.2 1-1.3h1.6c1.3.1 2.7-.4 3.8.2s.4 2.2.6 3.4c.6 3 2.1 4.4 4.8 4.3a4 4 0 0 0 4.3-3.7l.2-4.1zM592.1 62.2c.7-4.8-1.4-7.6-5.8-9.1-1.6-.6-3.1-1.3-4.5-2.2a9.8 9.8 0 0 1-4.8-6.1 23 23 0 0 1 .1-13.5c1.8-5.6 6-8.5 11.3-8.1 5.2.5 9.4 4.5 10.2 9.6l.3 4.8c0 1.2-.5 1.6-1.6 1.5H596c-1.2-.1-2.5.4-3.5-.3s-.4-2.1-.6-3.2c-.6-3.3-2.1-4.8-4.7-4.8-2.3.1-3.9 1.9-4.3 5l-.1 1.4c-.2 5.1.4 6.1 5.1 8.3l5.2 2.5a9.3 9.3 0 0 1 5 6.7c1 5 .9 10.1-.3 15-1.2 4.5-4 7.4-8.8 8a11 11 0 0 1-11.3-5.2 15.8 15.8 0 0 1-2.1-9c0-.9.4-1.3 1.3-1.3h4.3c.8 0 1.2.4 1.1 1.2a9 9 0 0 0 .5 3.6 4.2 4.2 0 0 0 4.8 3.1 4 4 0 0 0 4.1-3.6c.2-1.4.4-2.9.4-4.3zM330.3 50.6V25.9c0-2.4 0-2.4 2.4-2.4h15.6c2.1 0 2.1 0 2.1 2.2v3.6c0 1.2-.5 1.5-1.6 1.5h-9.4c-2.4 0-2.4 0-2.4 2.4v11.5c0 1.8 0 1.8 1.9 1.9h7.9c1.7 0 1.7.1 1.8 1.8v3.8c0 1.2-.5 1.7-1.7 1.7H339c-2 0-2 0-2 2v12c0 1.7.1 1.7 1.8 1.7h9.6c1.9 0 1.9 0 2 1.8v4.3c0 1.4-.5 1.6-1.7 1.6h-16.6c-1.8 0-1.9 0-1.9-1.9l.1-24.8zM281.3 50.7V26c0-2.4 0-2.4 2.4-2.4h15.6c2.1 0 2.1 0 2.2 2.2v3.6c0 1.2-.5 1.6-1.6 1.6h-9.4c-2.4 0-2.4 0-2.4 2.4v11.5c0 1.8.1 1.9 1.9 1.9h7.9c1.7 0 1.8.1 1.8 1.8v3.8c0 1.3-.4 1.7-1.7 1.7h-8.9c-.5 0-1 .4-1.1.9v13.7c0 1 .7 1.1 1.5 1.1h9.6c2.2 0 2.2 0 2.2 2.3V76c0 1-.4 1.4-1.4 1.4h-16.3c-2.4 0-2.4 0-2.4-2.3l.1-24.4zM354.1 50.6V36.5c-.1-2.5.4-5 1.4-7.2 1.7-3.8 5.5-6.1 9.6-6 4.4 0 7.4 2.2 9.3 6.1 1.2 2.6 1.7 5.5 1.5 8.4 0 .9-.4 1.4-1.3 1.3h-4.3c-.8 0-1.1-.4-1.2-1.2l-.2-2.6c-.1-1-.5-1.9-1-2.7a3.4 3.4 0 0 0-3.5-1.6c-1.4 0-2.6 1-3 2.4-.4 1.5-.6 3-.6 4.5v25.9c0 1.2.1 2.4.4 3.6a3.6 3.6 0 0 0 3.5 2.8 4 4 0 0 0 3.9-2.6c.4-1.3.6-2.6.5-4 0-1 .4-1.4 1.4-1.4h4.1c.7 0 1.2.3 1.2 1.1.2 4.1-.5 8-3.4 11.2a10.3 10.3 0 0 1-17.6-3.7c-.6-2.1-.9-4.4-.9-6.6.2-4.6.2-9.1.2-13.6zM552.3 50.2V25c0-1 .3-1.5 1.4-1.5h16.8c1.9 0 1.9.1 1.9 1.9V29c-.1 1.7-.1 1.8-1.8 1.8h-10.3c-.9 0-1.3.5-1.3 1.4v12.5c0 1.9 0 1.9 1.9 1.9h7.2c2.6 0 2.6 0 2.6 2.7v2.4c0 2.2 0 2.2-2.3 2.2h-7.2c-2.1 0-2.1 0-2.1 2.2v11.5c0 2 0 2 2.2 2.1h9.3c1.7 0 1.8.1 1.8 1.7V76c0 1-.3 1.5-1.4 1.5h-17.3c-1.4 0-1.5-.1-1.5-2l.1-25.3zM638.6 50.5V36.3c-.1-2.4.4-4.8 1.4-7a10 10 0 0 1 9.5-6.1c4.4 0 7.4 2.2 9.3 6 1.2 2.6 1.7 5.5 1.6 8.4 0 1-.4 1.5-1.4 1.4h-1.4c-1.2-.1-2.6.4-3.5-.3s-.3-2.1-.5-3.2a8.4 8.4 0 0 0-1.2-3.1 3.4 3.4 0 0 0-3.6-1.5c-1.3.1-2.4 1-2.8 2.3a14 14 0 0 0-.7 4.5v26.2c0 1.1.1 2.2.4 3.3.3 1.7 1.9 3 3.6 2.9a4 4 0 0 0 3.8-2.8c.3-1.1.5-2.2.4-3.3.1-1.9.1-1.9 2.1-2h1.9c2.8 0 2.8 0 2.8 2.8a14 14 0 0 1-2.9 9 10.4 10.4 0 0 1-18-3c-.7-2.1-1-4.4-.9-6.6.2-4.6.1-9.2.1-13.7zM386 54.3V32.2c0-.9-.5-1.3-1.3-1.3h-4.8c-1.2 0-1.7-.5-1.7-1.7v-4.1c0-1.2.5-1.5 1.6-1.5h18.7c2 0 2 .1 2 2v3.6c0 1.2-.5 1.7-1.7 1.6h-4.1c-1.9 0-1.9.1-2 1.9V76c.1 1.1-.4 1.6-1.5 1.6h-4.1c-.8 0-1.2-.3-1.2-1.1v-2.4l.1-19.8zM608 54.3V33.1c0-2.2 0-2.2-2.3-2.3h-4.1c-1 0-1.5-.4-1.4-1.4v-4.3c0-1.2.5-1.6 1.6-1.5h18.5c2.2 0 2.2 0 2.2 2.3v3.6c0 1-.5 1.4-1.5 1.4h-3.6c-2.7 0-2.7 0-2.7 2.6V76c.1 1.1-.3 1.6-1.5 1.6h-3.1c-2.1 0-2.1 0-2.2-2.1s0-3.8 0-5.8l.1-15.4zM305.5 50.5V24.6c0-.5.4-1 .9-1h.5c5.4-.6 5.4-.6 5.4 4.9v39.2c0 2.1 0 2.1 2.1 2.1h8.9c2.3 0 2.3 0 2.3 2.4V76c0 1-.3 1.5-1.3 1.5h-17.5c-.9 0-1.3-.4-1.3-1.3V50.5zM625.8 50.2V26c0-2.4 0-2.5 2.3-2.4 5.2 0 4.4-.7 4.4 4.4v48c.1 1.1-.3 1.6-1.5 1.6h-3.3c-1.9 0-1.9 0-1.9-1.8V50.2zM557.9 20.9l2.7-5 2.4-4.4c.3-.6.7-1.1 1.4-1.1h5.7c.1 1-.5 1.4-.8 1.8-1.7 2.2-3.7 4.2-5.2 6.5s-3.3 2.9-6.2 2.2z"/>
  <path class="st1" d="M288.7 188.8v30.5c.1 1.3-.5 1.6-1.7 1.6h-23.5c-1.7 0-1.7 0-1.8-1.7v-54.9c.1-1.2 0-2.4-.2-3.6a5.7 5.7 0 0 0-11.2.2c-.2 1.2-.3 2.4-.2 3.6V219c-.1 1.8-.1 1.8-1.9 1.8h-23c-1.7 0-1.7 0-1.8-1.8v-57a33.2 33.2 0 0 1 8.1-22.5 30.6 30.6 0 0 1 27.5-11.1 32 32 0 0 1 25.7 16.3 32.6 32.6 0 0 1 4.2 17.3l-.2 26.8zM194.9 157.2c-1.6-.2-3.2-1-4.9-1.5-6.7-2-12.9-1.1-18.4 3.3-9.4 7.6-11 19-5.2 29.1 3.7 6.5 9.5 9.5 16.9 9.5 1.4.1 2.9-.2 4.2-.9a3 3 0 0 0 1.6-3.2 2.8 2.8 0 0 0-2.4-2.4c-2.1-.3-4.1-.5-6.2-.4-2-.1-2-.1-2-2v-16.6c0-1.9 0-2 2.1-2h21.8c.9-.2 1.8.2 2.3.9 3.4 5 6.4 10.1 7.2 16.3 1.8 13-4.1 24.8-15.5 31.3a36.8 36.8 0 0 1-23.9 4.1 37.8 37.8 0 0 1-25.6-14.6 53.2 53.2 0 0 1-12.3-36.5c.5-12 5.3-22.1 13.9-30.4a44.2 44.2 0 0 1 45.2-10.7c.9.1 1.5.9 1.4 1.8v24c.2.3.1.7-.2.9zM13.8 188v-23.8c0-2.6.1-5.1.3-7.7.6-5.2 2.7-10.1 6-14.2a34 34 0 0 1 49.1-6.6c5.8 4.5 10.3 10 11.8 17.3a29.7 29.7 0 0 1-9.5 30.4c-3 2.7-6.7 4.5-10.7 5.2-4.6.9-9.4 1.2-14.1.9-1.1 0-1.6-.4-1.6-1.6V167c0-1 .4-1.4 1.4-1.5 1 0 1.9-.2 2.8-.6a5.2 5.2 0 0 0 3.7-6 6.5 6.5 0 0 0-5-5.8c-2.7-.5-4.7.5-6.1 3.1-.9 1.8-1.3 3.8-1.2 5.8v57c-.1 1.8-.1 1.9-1.9 1.9H15.1c-1 .1-1.4-.4-1.4-1.4V215l.1-27zM121.2 175.7v42.5c0 2.8.2 2.6-2.6 2.6H96.5c-2.9 0-2.7.2-2.7-2.8v-85.6c0-2.1 0-2.2 2.1-2.2h23c2.1 0 2.2 0 2.2 2.3l.1 43.2z"/>
  <path class="st2" d="M172.5 166.7v15.9c-3.4-3.9-3.7-12 0-15.9z"/>
  <path class="st1" d="M526.9 189.2v30.5c.1.5-.3 1.1-.8 1.1h-24.8c-1.3 0-1.7-.5-1.6-1.7v-55.6c.1-1.9-.3-3.8-1.2-5.6a5 5 0 0 0-6.6-2.2c-.7.3-1.3.8-1.8 1.5a7.9 7.9 0 0 0-1.7 4.9l-.1 11.8c0 1.4.6 1.6 1.7 1.6h4.1c1.2-.1 1.5.5 1.5 1.6v20.4c0 1.8 0 1.8-1.9 1.9h-3.4c-2 0-2 0-2 2V219c0 1.8 0 1.9-1.9 1.9h-24c-1 0-1.5-.4-1.4-1.4v-56.2c-.2-5.5.8-11 2.9-16.2a29.8 29.8 0 0 1 24-18.4 30.9 30.9 0 0 1 35.8 18.7 37.3 37.3 0 0 1 3.1 16.1l.1 25.7zM305 188.9v-26.1c0-6.4 1-12.6 4.1-18.3 4.9-9 12.5-14.1 22.5-15.7 6-1.1 12.2-.7 18 1.1 8.7 3 14.4 9.3 18.1 17.5 2.1 4.8 3.2 10 3.1 15.2v56.2c0 2.1 0 2.1-2.1 2.1H346c-2.3 0-2.3 0-2.3-2.4v-54.7c.1-2-.3-4-1.2-5.8a5 5 0 0 0-6.6-2.2c-.7.3-1.3.9-1.8 1.5a8 8 0 0 0-1.7 4.7l-.1 12c0 1.1.4 1.6 1.5 1.6h3.8c1.9 0 1.9 0 2 2.1v19.4c0 2.3 0 2.3-2.4 2.3h-3.1c-1.7 0-1.8 0-1.8 1.7v18c0 1.6 0 1.8-1.9 1.8h-23.8c-1.2.1-1.7-.4-1.7-1.6v-8.9l.1-21.5zM416 130.2h32.9c.6 0 1 .4 1 1v23.1c-.1 1.7-.1 1.7-1.8 1.7h-14.6c-4 0-4 0-4 3.9v58.3c0 2.6 0 2.6-2.6 2.6h-22c-2.3 0-2.3 0-2.3-2.4v-59.3c0-3.6.4-3.1-3.2-3.1H384c-2 0-2.1 0-2.1-1.9v-21.8c0-2 0-2 2.2-2l31.9-.1z"/>
  <path class="st2" d="M496.5 165.7v4.8c.1 1.2-.3 1.8-1.6 1.7h-1.7c-.9 0-1.3-.5-1.2-1.4l.1-10.6c.1-2 .8-2.8 2-2.8s2.1 1 2.1 2.9v5.3l.3.1zM340.5 165.5v5.3c0 1-.4 1.5-1.4 1.4h-1c-2.1 0-2.1 0-2.1-2.2v-8.4c0-1 .1-1.9.4-2.8.2-.9 1.2-1.5 2.1-1.3.4.1.8.4 1.1.8.5.6.7 1.3.7 2v5.3l.2-.1z"/>
  <path class="st1" d="M620.7 175.5c0-16.5 6.3-28.7 18.5-37.6a46.2 46.2 0 0 1 50-4.7 45 45 0 0 1 26 47.9 49 49 0 0 1-24 36c-7.2 4.4-15.2 6-23.7 6a48 48 0 0 1-46.8-47.6zm47.3 21.4c9.7.1 18.2-6.8 20.6-16.9 1.8-7.7.2-14.4-5.8-19.9a21.4 21.4 0 0 0-25.4-2.8c-8.4 5-12 13.5-9.6 23a21.3 21.3 0 0 0 20.2 16.6zM615.5 220.8h-25.8c-1.4.2-2.6-.7-3-2l-11.5-25.9c-.4-.9-.7-2-.6-3v-19.4c0-2.2.3-2.1 2-2.1a17 17 0 0 0 5.4-1.2c2.5-1 3.4-3 3.5-5.5s-.6-4.4-2.9-5.6c-1.3-.7-2.8-1.2-4.3-1.3l-6.2-.2c-.9 0-1.3.3-1.3 1.3v63.4c.1 1.1-.3 1.6-1.5 1.6h-24c-1 0-1.5-.4-1.4-1.4v-86.1c0-3.4-.3-3.1 3.1-3.1h33.1c9.3-.1 18.3 3.7 24.7 10.5 7.4 7.4 9 16.5 6.7 26.4a28.5 28.5 0 0 1-9.3 15.1c-1.7 1.4-1.7 1.4-.8 3.6l13.6 32.3c.3.7.5 1.7.5 2.6z"/>
  <path class="st2" d="M574.1 161.5v-1.6c0-2.5.2-2.6 2.8-2.4 3.2.4 4.7 2.2 4.2 4.9-.1 1.2-1.1 2.2-2.3 2.5-1.3.3-2.8.6-4 .1-1.5-.7-.3-2.5-.7-3.5z"/>
  <path class="st1" d="M69.1 38.4c-3 .2-6.1.3-9.1.6-1.1.3-2.3-.4-2.7-1.4-.5-1-1.1-1.9-1.8-2.8a14.6 14.6 0 0 0-24.7 1.9c-6.4 11.2 3.2 21.8 12.3 22 8.5.2 13.2-4.8 15.1-11.4.2-.5.3-.9.3-1.4.1-1.1.7-1.4 1.8-1.4 6.2.2 12.5.1 18.7.4 1.8.1 2.1 0 1.7 2.3-1 6.3-2.7 12.3-6.2 17.7a34.4 34.4 0 0 1-17.2 13.6A36.4 36.4 0 0 1 24 75.4C13.9 68.9 7.8 59.6 6.6 47.5S9.4 25.3 18.1 17A36.3 36.3 0 0 1 37 7c16-2.7 30.4 3.2 39.1 18a41 41 0 0 1 4.4 10.6c.5 2 .4 2.1-1.5 2.2l-9.9.6zM91.1 54.2V33.1c.1-5.8 1.3-11.3 4.6-16.1 3.5-5.2 8.9-8.7 15-9.9a27.2 27.2 0 0 1 17.8 1.6c7.5 3.7 11.6 10 13.6 17.9.6 2.7.9 5.4.8 8.1v42.2c0 2.3 0 2.4-2.4 2.4h-17c-2.2 0-2.2 0-2.2-2.2V35l-.3-3.6c-.5-2.4-2-3.7-4.1-3.6-1.4 0-2.7.7-3.3 2a8.7 8.7 0 0 0-1.1 4.1v7.9c0 1.3.4 1.7 1.7 1.7h2.9c1 0 1.3.4 1.3 1.3v16c0 1-.4 1.4-1.4 1.4h-2.6c-1.7.1-1.7.1-1.7 1.8v12.5c0 2.9.2 2.6-2.6 2.6H93.3c-2.2 0-2.2 0-2.2-2.3V54.2z"/>
  <path class="st2" d="M43.2 54.5a10.2 10.2 0 0 1-10-10.3V44a10 10 0 0 1 10-10h.4c5.6.2 10.1 4.7 10.2 10.3a10.4 10.4 0 0 1-10.4 10.2h-.2zM118.3 35.7v3.6c0 .7-.2 1.2-1.1 1.2s-1.4-.1-1.4-1.1l.1-7.6c0-.7.2-1.5 1.2-1.5s1.2.8 1.2 1.7v3.7z"/>
  <path class="st1" d="M202.6 54.1V33.4c-.1-3.6.5-7.2 1.7-10.6a23.6 23.6 0 0 1 18.8-15.9c4.8-1 9.8-.8 14.4.7a24.6 24.6 0 0 1 15.3 15.8c1.2 3.4 1.8 7 1.7 10.6v43c0 2.2 0 2.3-2.2 2.3h-17c-2.3 0-2.4 0-2.4-2.4V34.7c.1-1.6-.2-3.2-.8-4.7a3.6 3.6 0 0 0-3.4-2.2c-1.5-.1-2.9.8-3.6 2.1-.6 1.2-1 2.5-1 3.9V42c0 1.1.4 1.6 1.5 1.6h2.9c1 0 1.5.4 1.5 1.4v16c0 .9-.4 1.3-1.3 1.3h-2.6c-1.9 0-1.9 0-1.9 1.9v13.6c0 1-.4 1.4-1.4 1.4h-18.5c-1.3 0-1.6-.5-1.6-1.7l-.1-23.4zM154.2 58.5c1.3.3 2.3.9 3.5 1.2a7 7 0 0 0 6.6-2 4.5 4.5 0 0 0 1.2-4.8c-.6-1.8-1.4-3.6-2.4-5.2a48.5 48.5 0 0 1-4.4-11.1 24.7 24.7 0 0 1 30.6-29.2c1.1.2 1.9 1.2 1.8 2.3v16.5c0 1.8-.1 1.9-1.7 1.5-2.3-.7-4.8 0-6.2 1.9a6.2 6.2 0 0 0-.8 6.5c.6 1.6 1.4 3 2.2 4.5 1.1 2.2 2.2 4.4 3.1 6.7a23.4 23.4 0 0 1-10.4 30c-6.9 4-14.2 5-21.9 2-.9-.4-1.5-.7-1.5-1.8L154 59l.2-.5z"/>
  <path class="st2" d="M229.8 35.6v3.6c0 .9-.4 1.3-1.3 1.3s-1.3-.4-1.3-1.3l.1-7.4c0-.8.1-1.5 1.1-1.6s1.4.7 1.4 1.6v3.8zM409.8 39.1v-6.7c0-1.1.4-1.5 1.5-1.6 5.5-.3 7.3 1.2 7.6 6.7.1 1.9 0 3.8-.2 5.7-.5 3-1.9 4.3-4.8 4.4-5.1.1-4 .4-4.1-3.9v-4.6zM446.8 50.5v12.7l-.3 3.6a4.3 4.3 0 0 1-8.4 0l-.3-3.3v-26c0-.9 0-1.7.2-2.6.4-2.5 2-4 4.3-4s4.2 1.7 4.3 4l.2 3.1v12.5zM466.5 50.6V33.1c0-2.2 0-2.3 2.3-2.2.7 0 1.4 0 2.1.2a4 4 0 0 1 3.2 2.6c.5 1.5.8 3.1.7 4.7v24.9l-.3 3.3c-.5 2.3-1.8 3.4-4.1 3.6-3.7.4-3.8.3-3.8-3.3l-.1-16.3zM503 50.5v12.7l-.2 3.3c-.4 2.4-2.6 4-4.9 3.6a4.2 4.2 0 0 1-3.6-3.6c-.2-1-.3-2.1-.3-3.1V37.5l.2-2.6c.4-2.5 2-4 4.3-4a4.1 4.1 0 0 1 4.3 4l.2 3.6v12zM681.5 50.5v12.9l-.3 3.3a4.3 4.3 0 0 1-8.4 0c-.2-.9-.3-1.9-.3-2.9V37.1c0-.9.1-1.8.3-2.6a4.3 4.3 0 0 1 8.5 0c.2 1.1.3 2.2.2 3.3v12.7z"/>
  <path class="st0" d="M668 196.9a21.3 21.3 0 0 1-20.1-16.6 20 20 0 0 1 9.6-23 21.6 21.6 0 0 1 25.4 2.8c6 5.5 7.6 12.2 5.8 19.9a21.6 21.6 0 0 1-20.7 16.9zm-15.9-21.1a16.5 16.5 0 0 0 33 .2 16.6 16.6 0 0 0-16.4-16.6 16.5 16.5 0 0 0-16.6 16.4c0-.1 0-.1 0 0z"/>
  <path class="st2" d="M652.1 175.8c0-9.1 7.4-16.4 16.5-16.4 9.7 0 16.3 8.2 16.4 16.6a16.4 16.4 0 1 1-32.9-.2z"/>
</svg>
